<svg xmlns="http://www.w3.org/2000/svg" width="757.5" height="1200" viewBox="0 0 606 960"><path d="M473.5 61c-52.8 9.2-96.3 16.6-96.7 16.3-.5-.2-.8-1.1-.8-1.9 0-.8-1.1-2.6-2.5-3.9-3.2-3.3-10.5-3.5-13.5-.5-1.1 1.1-2.6 2-3.3 2-.7 0-2.2.7-3.3 1.5-1 .8-3.2 1.5-4.7 1.5-6.4 0-11.7 2.2-15 6.1l-3.3 3.8-27.7 4.8c-22.2 3.9-27.7 4.6-28.2 3.6-.6-1.8-7.1-4.5-9.9-4.2-1.1.1-2.9-.2-4-.6-1-.5-3.9-.3-6.6.4-2.5.7-9.4 1.3-15.3 1.4-10.2.2-10.7.3-13.6 3.1-1.8 1.7-3.2 4.3-3.6 6.6-.5 2.8-1.2 4-2.8 4.3-1.2.3-44.6 7.8-96.4 16.8-90.9 15.7-99.2 17.5-93.8 19.5 1.1.5 181.7-30.2 190.4-32.3 2.3-.6 2.4-.4 1.8 3.6-.3 2.4-.7 4.4-.9 4.6-.1.2-42.1 7.6-93.3 16.4-51.1 8.9-93.6 16.3-94.2 16.6-2 .7-1.5 3.5.5 3.5 1.6 0 176.8-30.1 183.3-31.5 2.4-.5 2.5-.4 2.1 2.5-.5 3.5 2.2 7.1 7 9.6l2.8 1.4v20.2c-.1 14.2-.5 22.1-1.5 26.6-2.2 9.2-3 30.2-1.6 39.1.7 4.1 2.3 10.8 3.7 14.7 2.7 7.9 5.8 28.3 5.8 37.9-.1 3.3-1 9.1-2.2 12.9-3.7 11.4-3.1 18.7 2.9 37.3 4.3 13.7 5 17.1 5.3 25.3.2 6.3 1 11.9 2.5 16.7 1.8 6.2 2.2 10.3 2.6 27.5.3 11.2.9 22.8 1.3 25.8.5 3.4.3 8.5-.5 13.5-1.7 10.7-1.6 19.1.3 28.2 1.6 8 7.6 25.4 9.8 28.9 1.9 2.7 9 19.7 10.9 25.9 1.6 5 2.5 17.7 1.4 20.5-.3.8-.8 3.9-1.2 6.9-.4 3.4-1.5 6.5-3 8.5-4 5.2-4.6 8.3-5.9 29.1l-1.3 20-5.7 15.5c-8.8 23.7-13.5 44.2-10.5 45.2.7.2.4 5-1.1 15.3-1.9 12.7-2.1 17.5-1.6 31.5.3 9.1 1 20.5 1.6 25.5.5 4.9 1.1 14.2 1.3 20.5.4 14.1 1.8 18.8 7.4 25 6.2 6.9 11.8 9.4 19.6 8.8 5.3-.4 6.6-.2 9.2 1.7 12.7 9.5 46.6 16 66.9 13l4.5-.7-1 3.6c-.8 3.1-.6 4.7 1.5 9.9 2.5 6.5 5.6 23.3 5.6 30.8 0 2.9-1.1 6.6-3.1 10.8-3.7 7.6-5.4 18.9-4 26.6.6 2.7 1.5 8.4 2.2 12.5 2.3 14.9 4.1 17.6 11.2 16.8 2.8-.3 5 0 6.2.8 2.8 2 6.9 1.7 10-.8 1.8-1.4 4-2.1 6-2 2.2.2 4.3-.6 6.7-2.5 2-1.6 5-3.6 6.6-4.5 3.5-1.9 5-6.7 3.3-11-1.2-3.2 1.4-15.8 3.3-15.8 3.3 0 11.7-5.2 13.8-8.4 1.3-2 3.1-3.6 4.1-3.6 2.3 0 7.7-5.3 7.7-7.5 0-.9 1.4-4.9 3.1-8.8 4.3-9.7 4.3-16.9.1-28.7-3.5-9.7-3.5-10 1.9-28.8 3.4-11.8 3.3-19.1-.5-25.8-5-8.9-14.7-11.9-29.2-8.9l-3.1.7-2.4-7.4c-2.5-8-2.5-5.1-1.4-69.8.5-25.4.7-28.6 2.2-29.8 1.6-1.2 1.6-1.6-.1-7.5-3.1-11-6.5-36.4-6.6-49.2 0-18.7-5.3-38.4-13.1-49.3-3.3-4.6-4.8-9.4-4.9-15.3 0-2.2-.9-4.7-2.1-6.3-2-2.6-2.1-3.5-1.5-12.9.9-12.9 3.2-30.6 4.4-33.8.5-1.3 4-6 7.6-10.4 7.5-9 8.5-11.5 12.1-30.9 2.1-11.6 2.4-12.5 7.4-19.3 5.7-7.8 8.1-14.5 8.2-23.3.1-4.4.8-6.6 3.6-11.3 3.9-6.5 6.3-13.4 6.3-18.2 0-1.8-1.4-7.9-3.1-13.6-2.9-9.7-3.1-11-2.3-18.9.4-4.7.8-13 .9-18.5v-10l-5.7-10.3c-6.7-11.8-9.8-21.8-9.8-31.5 0-10.8-4.2-25.7-9.5-33.6-5.8-8.7-7.5-15.7-7.4-30.7 0-14-.9-18.9-5.7-29.7-5.6-12.9-7.4-20.7-7.4-33v-10.8l8-9 8-8.9v-6c0-5.4.2-6 2.3-6.5 1.2-.3 44.1-7.7 95.2-16.6 51.2-8.8 93.4-16.5 94-17 3.9-3.8-3.3-2.8-96.8 13.4-93 16.1-95.6 16.5-99 15-3.6-1.7-5.6-5.1-3.4-5.8 1.5-.4 193.9-33.5 195-33.5.4 0 .7-.9.7-2 0-1.5-.6-2-2.7-1.9-1.6.1-46 7.7-98.8 16.9M370.7 72.5c1.7 1.2 6.3 10.7 6.3 13 0 .7-7.2 2.5-8 2-.4-.3-1-2.2-1.4-4.4-.3-2.2-1.7-5.3-3.1-7-2.4-2.8-2.4-3-.8-4 2.5-1.5 4.5-1.3 7 .4m-9.3 3.8c1 .7 2.6 3.8 3.6 6.7l1.9 5.5-2.7.5c-2.4.5-2.9.1-3.9-2.8-.7-1.9-2.2-4.9-3.3-6.7-1.5-2.5-1.7-3.4-.8-3.8 2.2-.9 3.3-.8 5.2.6m-8.6 3.3c3.3 2.3 5.5 7.3 5.7 12.9.2 5.1-.6 6.5-3.8 6.5-1.4 0-1.7-.5-1.2-1.9 1-3.3-1.6-11.1-5-14.6-2.5-2.7-2.8-3.5-1.6-3.8 2.9-.8 3.6-.7 5.9.9m-3.2 9.1c1.9 4.3 1.8 9.9-.1 10.7-2.7 1-4.5-.5-4.5-3.6 0-1.7-1-4.8-2.2-6.9-1.7-3.1-2.7-3.9-5-3.9-3.6 0-2.8-1.7 1.6-3.5 2.9-1.3 3.3-1.2 6 1.3 1.6 1.5 3.5 4.1 4.2 5.9m-8.3 3.8c1.3 2.7 1.4 3.7.4 4-2 .7-66 11.6-66.2 11.3-.2-.2 0-2.1.4-4.3.4-2.9 1.2-4.1 2.6-4.4 11.7-2.3 55.7-9.9 58.1-10 2.5-.1 3.3.5 4.7 3.4m42.8-.8c.6 1.6.7 4.9.4 7.8-.6 4.3-1.5 5.8-6.8 11.5-3.4 3.6-7.9 7.3-10.1 8.4-3.5 1.6-3.8 2-2.3 3.1 1.4 1 1.7 3 1.7 12.1 0 13.6 1.9 22.8 6.3 30.7 6.4 11.6 7.7 18.1 6.3 33-1 11.4.2 16.6 6.9 28.7 7.9 14.1 9.3 19.1 10.4 36.5l.9 15 7.6 14.7c7.4 14.3 7.6 14.9 7.6 21.8 0 4-.7 9.7-1.6 12.7-2 7-1.2 15.4 2.3 23.8 3.6 8.5 3.6 16.4-.1 23.9-1.5 3.1-3.1 5.6-3.4 5.6-1 0-8.2-14.4-8.2-16.4 0-1-.6-1.6-1.2-1.4-2.7.9-1.9 5.9 2.3 14.9 3.9 8.6 4.1 9.5 3.7 16.3-.5 8.2-2.2 11.9-8.8 19.6-4.6 5.5-4.6 5.6-6.8 18.8-2.4 15.1-5 21.2-13.7 32.7-2.9 3.8-5.8 8.1-6.5 9.4-1.4 2.8-3.9 30.4-4 43.8v9.2l-3.7 3c-12 9.9-35.8 17.1-56.6 17.1-12.8 0-21.9-2.1-29.3-6.7l-4.5-2.8.6-4.7c1.3-10.4-3.9-28.7-13.8-48.5-7.9-15.6-10.1-23.5-10.1-35.8-.1-10 .7-15.5 2.2-15.5.5 0 1.8 2.4 3.1 5.4 2.2 5.3 4.4 7.5 5.7 5.5.3-.6-1-4.8-3-9.4-4.9-11.5-6.3-18.6-7.1-36.1-.9-17.9-.5-18.7 6.2-12.3 6.9 6.7 8.5 9.6 9.2 15.7.4 4.3 1 5.8 2.3 6 1.5.3 1.7-.3 1.2-5-.9-8.8-1.1-9.2-9.1-17.9-5.6-6-8.8-10.5-11.3-15.9-3.2-7-3.4-8.2-3.5-17.5 0-8.7.5-11.4 3.4-20.9 3.2-9.9 3.4-11 2-13.4-2.1-3.8-3.3-2.9-4 3-.9 7.3-3.1 14.9-3.7 12.3-.2-1.1-2.1-7.4-4.3-14.1-4.5-13.9-4.7-18.1-1.9-31.5 1.1-5.2 2-12.1 2-15.4 0-10.2-2.7-27.1-5.4-33.9-4.8-11.9-5.9-31.2-3.1-54.6.8-6.9 1.5-20.9 1.5-31.2 0-20.8.5-19.4-7.9-24-3.6-2-3.9-4.3-1.6-10.8.8-2.3 1.5-5.3 1.5-6.6 0-3.3 1.4-3.8 9.8-3.6 4.1.1 8.2-.3 9.2-.8 2.8-1.5 4.1.9 2.5 4.7-1 2.4-2.3 3.4-5.2 4.2-4.9 1.4-7 1.4-7.9 0-.4-.7-1-.7-1.6-.1-2.2 2.2.4 3.5 6.3 2.9 4.9-.4 6.3-.2 8.5 1.5 3.6 2.9 4.7 6.3 3.3 10.5-1.4 4.5.1 6.5 2.5 3.2 2.4-3.5 2-8.9-.9-12.9l-2.5-3.4 2.7-1.5c2.6-1.3 7.1-2 14.3-2 1.9 0 3.6.2 3.8.3.6.7-3.7 14.1-5.4 16.4-.9 1.3-3.6 3.2-6 4.2-4.4 1.9-6.3 4.7-2.4 3.5 1.8-.6 2-.2 2 5 0 8.7 3.5 24 9.1 39.8 4.6 13 5.1 15.3 5.9 27.2.5 7.1 1.3 15.6 1.9 18.7.5 3.2.7 7.3.4 9.3l-.6 3.5-4-2.3c-5.2-2.9-6.9-5.7-6.5-10.4.2-2.9-.1-3.8-1.4-4.1-1.5-.3-1.8.4-1.8 5 0 7.1-1.2 10.8-5.9 18.7-4.3 7-5.8 13.6-3.1 13.6.8 0 2-1.7 2.8-3.8 2.2-7 8.2-16.7 10.3-16.7 3.4 0 11 6.3 13.4 11 3.1 6.3 4.2 11.5 5.5 26.3 1.2 13.1 3.7 24.1 6.5 28.3.8 1.3 5.2 5.1 9.7 8.5 9.2 6.9 9.4 7.1 12.4 14.9 2.4 6.3 4.8 8 11.2 8 5.7 0 5.8-2.6.1-3.7-2.3-.5-4.5-1.5-4.9-2.3-.4-.8-1.6-3.4-2.9-5.8-1.6-3.1-1.8-4.2-.8-4.2 2.3 0 9.7-7 9.7-9.2 0-1.8-.6-1.5-4.5 2.1-5 4.6-7.3 5.1-10 2.1-1-1.1-3.7-3.1-6-4.4-6.4-3.8-11.5-9.9-11.5-14 0-5 6.7-26.3 10.3-32.6 4.1-7.4 15.9-18.9 22.8-22.3 7.5-3.7 16.6-5.1 23.8-3.6 9 1.8 20.2 8.2 26.7 15.2 7.8 8.4 9.8 13.1 9.8 23.2-.1 7-.4 8.8-3.3 14.3-1.8 3.6-6.6 10-11.2 14.9-7.9 8.6-8 8.6-7.8 13.7.1 2.8.1 8.6-.1 12.8-.1 4.2.1 8.1.5 8.7 1.2 2 2.2 1.1 2.9-2.7.6-3.7 4.7-9.1 8.4-11.1 3.5-1.9 6.3-1.2 10.4 2.5 2.4 2.2 4.7 3.4 6 3.2 3-.4 3.4-2.5.6-3.4-1.2-.4-3.9-2-5.9-3.6-2-1.6-5.2-3.1-7.2-3.5-3.2-.5-4.1-.1-7.2 3l-3.5 3.5v-13l7.1-7.6c4.4-4.8 8.4-10.5 10.7-15.2 3.5-6.9 3.7-8 3.7-16.5 0-7.6-.5-9.9-2.7-14.7-5.3-11.4-16.6-20.8-30.6-25.4l-7.8-2.6-1.3-8.1c-.8-4.5-1.3-11.1-1.2-14.6.1-5.4-.4-7.8-3.4-14.8-4.5-10.4-5.1-15.7-3.1-25.3 2-9 3.9-29.8 4-43.3l.1-9.7 2.8.6c1.5.3 2.7.2 2.7-.2s-1.9-2.8-4.3-5.3c-3.9-4.2-8.7-13.4-7.5-14.6.5-.5 3.7-.5 13.3-.1 3.9.2 7.8-.1 8.8-.6 3.4-1.7 3.8.3.7 3.8-3.3 3.8-4.3 6.7-3.8 11 .5 4.4 2.2 3.1 2.8-2.1.4-3.3 1.5-5.4 4-8 1.9-2 4.1-3.5 5-3.4 5.3.5 11.1-2.5 9.6-5-.6-.9-1.2-.8-2.6.4-1 .9-3.6 1.9-5.7 2.2-3.1.4-4.2.1-6.2-2-1.3-1.4-2.1-3.1-1.9-3.8.5-1.5 11.8-4.6 17.6-4.8 3.8-.1 4.4.2 5.3 2.6m-122.6 3c1 1.5 2 4.5 2.3 6.8.3 3.4-.1 4.6-2.3 7.3-2.9 3.5-7.3 4.5-6 1.4 1.6-3.8 1.7-9.9.2-13.4-.8-2-1.3-3.9-.9-4.2 1.5-1.5 5.1-.4 6.7 2.1m-10.2.1c4.1 4.6 2.6 16.6-2.4 19.2-2 1.1-2.1 1-1.4-.6 1.6-3.9 1.7-7 .1-8.3-.9-.8-1.6-2.1-1.6-3 0-.9-.7-2.9-1.5-4.5-1.9-3.6-2-3.4 1.3-3.9 1.5-.2 3-.5 3.3-.6.3 0 1.3.7 2.2 1.7m20.1-.2c2 2 3 5.7 2.2 8.7-.9 3.8-4.5 7.7-7.1 7.7-2.3 0-2.4-.1-.9-3.5 1.8-4.5 1.8-9-.2-12-1.6-2.5-1.6-2.5 1.4-2.5 1.7 0 3.8.7 4.6 1.6m-33.3.4c2.4 1.3 5.2 6.7 4.5 8.6-.4 1.1-1.8 1.4-4.8 1.2-3.5-.2-4.4-.7-4.6-2.5-.2-1.2-1-2.7-1.8-3.3-1.2-1-1.4-.7-1.4 1.9 0 2.8-.3 3.1-2.9 3.1-2.9 0-2.9-.1-2-3.3 1.6-5.8 7.7-8.5 13-5.7m95.9 8.1c0 .6 1.4 4.3 3.2 8.2l3.1 7.2-1.6 24c-1.1 16.6-2.1 25.5-3.3 28.9-2.4 6.9-1.5 17.7 2.5 29.1 2.1 6.1 3.1 10.8 3.1 15 0 3.3.6 7.8 1.4 10 .7 2.2 1.1 5.6.9 7.6l-.5 3.6-6.3.6c-20.3 1.9-39.7 22.5-44.5 47.2-2.3 11.6-2.9 10.6-4.5-8-.8-9.3-2.9-18.2-6-25.5-2-4.7-2.5-7.7-2.5-14.2 0-4.6-.5-10.1-1-12.3-.6-2.2-1-7.9-1-12.7 0-12.1-1.2-17.3-7-29.6-4.4-9.5-5.2-12.3-7-24.6-2.3-15.4-1.8-19.5 2.5-23.6 2.8-2.6 4.9-7.9 6.5-16l1-5.5 29.3-5.1c34.4-6 31.7-5.7 31.7-4.3m36.6 435.5c-.4 1.3-3.1 3.8-6.5 6.1-6.2 4-7.3 5.3-4.3 5.3 2 0 5.4-2.1 9.5-5.9l2.7-2.5 1.8 2.3c7.2 9.8 8.8 13.8 11.5 28.2 1.5 7.9 3.6 23.4 4.8 34.4 2.3 23.2 3.5 32.5 5 37.9.6 2.1.9 3.9.7 4-.2.2-3.5 2.8-7.4 5.9-7.4 5.9-17.2 11-28.3 14.6-6.5 2.1-17.4 2.8-24 1.5l-3.2-.7.3-15.4.3-15.4 6.8-6.1c7-6.2 11.7-12.9 11.7-16.6 0-3.5-1.7-2.6-6 3.4-2.3 3-6 6.7-8.2 8.2-2.3 1.5-5.5 4-7.3 5.7l-3.2 3-.7 13.5c-.4 7.4-.9 16-1.2 19.1l-.6 5.7-7.2 2c-11.1 3.3-24.9 4.5-34.7 3.2-14.2-2-20.3-5.2-34.9-18.4l-4.3-3.9 4.3-15.1c2.4-8.3 5.4-17.8 6.8-21.1 4.7-11.7 6.2-20.1 6.8-37.5.3-9.1 1-18.3 1.5-20.5 1.1-4.2 3.9-9.5 5-9.5.3 0 2.6 1.5 5 3.4 6.8 5.3 15.4 7.8 28.9 8.4 9.7.4 12.8.1 19.5-1.7 9.1-2.4 15.5-5 15.5-6.3 0-1.4-3-.9-14 2.2-11.9 3.4-21.4 3.8-32.2 1.6-7.7-1.7-11.4-3.4-16.3-7.7-3-2.7-3.5-3.7-3.5-7.7v-4.5l2.3 2c8.9 8.2 32.4 11.1 52.2 6.4 19.1-4.5 36.9-12.3 42.2-18.5l2.8-3.1.3 3.9c.2 2.2.1 5-.2 6.2m22.1 175.9c-.1 18.1.2 34.1.7 35.4l.9 2.5-3.1-2.6c-1.8-1.5-4.8-3.2-6.8-3.8-7.4-2.5-24.4.7-24.4 4.6 0 1.9.9 1.8 5.5-.6 4.4-2.2 12.6-2.7 17.2-.9 3.4 1.3 8 5.5 9.8 9 1.2 2.2 1.2 3 .1 4.4-1.1 1.6-2.7 1.7-14.2 1.2-8.2-.3-14.9-1.1-18.4-2.2-7.1-2.2-12.4-7.6-14.5-14.7-1.8-6.1-2.1-17.8-.4-17.8.7 0 .5-.9-.5-2.4-2.7-4.3-14.6-50.9-13.2-52.3.1-.1 2.2.3 4.6.9 13.7 3.1 39.5-4 52.5-14.6l3-2.4.7 11.6c.4 6.5.7 26.5.5 44.7m-139-42c8.8 7.1 15.4 10.4 23.9 11.6 7.2 1.1 21.8.5 29.3-1.2 2.4-.5 4.6-.7 4.9-.4.9.9-4 10.7-8.1 16.2-2.1 2.9-7 7.8-10.9 10.9-6.5 5.3-9.9 9.6-8.5 11 .3.4 3.4-1.9 6.8-5s6.6-5.6 7-5.6c.4 0 .1 2.4-.7 5.2-.7 2.9-1.4 7.5-1.4 10.1 0 6.4-2.2 11.2-5.9 13.2-3.3 1.7-4.5 5.3-1.3 4 10.5-4.4 28.4-2.7 40.4 3.7 3.4 1.8 9.3 6.1 13.1 9.6 8.2 7.6 12.1 9.5 24.2 11.7 11.6 2.2 20.3 1.6 32.4-2.4 11.2-3.7 17.1-3.9 23.1-.9 9.8 5 11 12.1 5.6 31.6-4 14.3-4 13.1.6 29 3.4 11.9 3.4 17.6-.1 26.2-4.2 10.1-4.5 10.5-7.6 10.8-2.2.2-3.4 1.2-4.6 3.5-1.4 2.9-9.6 8.6-12.4 8.7-.5 0-1-2.4-1.1-5.3-.1-3.7-1.3-8.2-4.4-15.7l-4.3-10.5 1.8-14.7c1.9-16 1.6-19.7-2-27.3-2.8-5.7-7-8.9-13.6-10.4-5.8-1.3-10.5-.1-16.2 4.3-3.4 2.6-5.6 3.4-10.7 3.9-3.6.4-9.8 1.1-13.8 1.6-8.9 1.1-20.3-.1-33.7-3.5-11.4-2.8-19.7-6.5-28.4-12.3-6.7-4.6-8.5-5.1-7.6-2.1.6 1.8.2 2-5.1 2-5.7 0-5.9-.1-11-5.4-3.2-3.3-5.7-6.9-6.3-9.3-.6-2.1-1.1-10.9-1.1-19.5 0-8.7-.7-21-1.6-27.5-2.2-16.7-2.2-29.7 0-43.6 1.1-6.4 2.1-11.7 2.3-11.7.1 0 3.3 2.5 7 5.5m74.3 8.9c0 2.4 2.6 13.5 5.7 24.7 4.6 16.7 5.8 22.4 6.3 31.4.4 6 .6 11.1.5 11.2-.1.2-1.7-.9-3.6-2.3-8.4-6.3-21.6-10.4-33.4-10.4h-4.1l.3-6.8c.8-16.8 1-17.3 11.6-32.7 2.2-3.1 4.9-8.2 6.2-11.3 1.9-4.6 2.9-5.8 5.6-6.8 4.9-1.8 4.9-1.8 4.9 3m59 117.1c4.7 4.5 6.4 11.6 5.1 21-2.1 14.5-1.5 24.1 2 33.6 4.4 11.8 5 22.3 1.9 31.8-2 6.5-2.1 7.1-.6 8.6 2.8 2.9 1.2 8.5-2.5 8.5-1.1 0-2.4 1-3 2.4-.9 1.9-2.1 2.5-6.4 3.1-3 .3-5.9 1.3-6.6 2.1-.6.8-2.7 1.4-4.6 1.4-3 0-3.4-.3-2.7-1.8 1.3-3.1 1.6-9.2.5-10.6-.6-.7-1.2-2.5-1.3-4-.2-2.7-2.3-3.6-3.1-1.4-.2.7.3 3.2 1.2 5.5 1.4 3.9 1.4 4.5-.2 7.8-1.4 3-2.1 3.5-5.2 3.5-4.7 0-6.1-2.5-7.5-13.5-.7-5-1.5-10.6-2-12.5-.5-1.9-.5-6.9-.1-11.2.7-6 1.5-8.6 4-12.5 4.5-6.9 8.1-14.4 8.1-17 0-4-1.9-3.4-3.2.9l-1.3 4.3-.2-4.5c-.2-2.5-1-8.3-1.8-13-.8-4.7-1.6-10.2-1.8-12.3-.3-2.1-1.4-4.8-2.7-6.2-2.1-2.3-2.2-2.8-1.1-6.5.8-2.8 1.7-4 3-4 1.4 0 1.8.5 1.4 2-.8 3 .9 2.4 4.8-1.6 6-6.4 8.6-7.5 16.1-7.2 5.8.3 7.1.7 9.8 3.3"/><path d="M366.7 207.6c-.4.4-.7 2-.7 3.5 0 1.6-.9 5.1-2 7.9-2.4 6-2.6 10-.5 10 .8 0 1.7-1.5 2.1-3.7.4-2.1 1.5-5.6 2.5-7.8s1.9-4.7 1.9-5.6c0-2-2.4-5.2-3.3-4.3M257 266.1c0 1.2 1.2 3.5 2.7 5.3 4.7 5.5 6.3 10.4 6.3 19.3 0 6.2.4 8.5 1.6 9.8 3.1 3 3.5.2 2-12.4-1.7-13.6-1.4-12.8-6.9-19.4-4.3-5.1-5.7-5.8-5.7-2.6M266 311.8c0 1.3 1.3 2.1 4.3 3 3.8 1 6.9 3 20.1 12.7 4.8 3.6 8.1 9.1 9 14.8.8 5 2.1 6.7 5.2 6.7 2.9 0 3.1-2.1.5-3.7-1.2-.7-2.1-2.9-2.5-6.2-.8-6.2-3.2-9.2-13.7-17.2-7.4-5.6-18.8-11.9-21.6-11.9-.7 0-1.3.8-1.3 1.8M345.4 317c-1.2.5-2.5 1.3-2.8 1.9-.9 1.4 1.4 2.5 2.7 1.2.6-.6 3.7-1.1 7-1.1 4.2 0 5.8-.3 5.5-1.3-.5-1.5-9.4-2-12.4-.7M397.4 330.4c.6 2.9.1 4-3.4 8.2-3.4 4-4 5.4-3.5 7.9 2.1 11.6 2.4 10.5-5.5 18.1-8.3 7.9-10.9 12.5-11.7 20-.5 4.5-.3 5.4 1 5.4 1.2 0 1.7-1.6 2.3-6.8.7-7.4 1-7.7 15.2-20 3.4-2.9 6.2-5.9 6.2-6.6 0-.8-.9-3.4-2-5.9-2.3-5.1-1.9-6.7 2.2-11.5 3-3.5 3.8-8.8 1.6-11-2.1-2.1-3-1.3-2.4 2.2M309.7 346c-3.1 1.9-.8 3 6.5 3 7 0 7.1 0 10.9 4.1 3 3.3 4 3.8 4.5 2.6.9-2.6-1.5-5.8-5.9-7.7-5.4-2.4-13.6-3.4-16-2M291.3 352.3c-.5.6-1.5 3.1-2.1 5.4-1 3.2-2.9 5.6-8.2 10.4-6.6 5.9-8.9 9.9-5.5 9.9.8 0 1.5-.5 1.5-1 0-2.1 2-.9 4.5 2.7 1.6 2.5 2.5 5.1 2.5 7.8 0 4.5 1.2 7.1 2.9 6.1 1.8-1.2 1.3-8.8-.9-12.6-4.7-8.2-4.7-7.7-.3-11.8 3.5-3.2 8.3-12.6 8.3-16.2 0-1.5-1.7-2-2.7-.7M353.5 358.5c.9 7 .8 14.3-.5 40.2-.9 19.8-1.6 22.9-7.5 35.6-3.3 7-4.6 17.7-2.3 17.7 1.1 0 1.7-1.6 2.2-5.8.4-3.6 2.4-9.3 5.2-15.5l4.6-9.8 1-19.7c.5-10.8.8-25.4.6-32.4-.3-10.8-.6-13-2.2-14.5-1.8-1.7-1.8-1.6-1.1 4.2M301.7 381.7c-.4.3-.7 1.5-.7 2.5 0 1.4.8 1.8 3.3 1.8 3.4 0 6.6 3.1 10.1 9.7 2.1 4.1 5 6 10.3 6.9 3.2.5 4.9.2 6.8-1 2.8-1.8 4.5-5.3 3.8-7.4-.9-2.2-3.1-1.3-4.2 1.8-.7 2.1-1.7 3-3.1 3-3.8 0-9.1-3.2-11.5-7-5.4-8.6-12-13.2-14.8-10.3M377 400.7c0 5.3 5.9 10.3 12.1 10.3 2.7 0 10.9-5.1 10.9-6.8 0-1.7-2-1.5-5.8.8-3.7 2.3-12.1 2.8-12.6.7-1.3-5-2.3-7.1-3.3-7.5-.9-.2-1.3.7-1.3 2.5M308.7 409c-1.9 1.6-4.5 4.6-5.9 6.7-1.3 2.1-3.8 5.8-5.4 8.2-4 6.1-9.5 8.5-16.1 7.1-6.4-1.5-9-3.3-10.8-7.6-1.2-3-1.8-3.4-2.9-2.5-1.2 1-1.2 1.8.2 5.2 2.2 5.7 7.4 8.3 16.8 8.4 6.2 0 7.5-.3 10.6-2.7 2-1.5 5.2-5.6 7.2-9.1 3.7-6.7 7.7-11.6 11-13.4 1-.6 1.6-1.5 1.2-2.2-1.1-1.7-2.2-1.4-5.9 1.9M372.6 408.7c-.7 1.6-2.1 6.6-3.1 11.2-3.1 15.4-4.1 17.7-11.1 25.2-6.3 7-7.9 10-7.2 13.6.3 1.3 1.3.4 4-3.7 2-3 5.3-7.1 7.3-9 5.1-4.9 7.4-9.8 9.1-19.8.8-4.8 2.1-10.4 2.9-12.5 2.7-6.8 1.2-10.8-1.9-5M319.3 414.6c-.3.8-.3 6.4-.1 12.4.5 9.9.8 11.3 3.9 16.7 1.8 3.2 4.8 8.8 6.7 12.5 1.8 3.8 3.8 6.8 4.3 6.8 2.3 0 .7-6.7-3-12.4-7-10.7-8.4-14.9-8.9-26.9-.4-9.9-1.4-13-2.9-9.1M367.2 447.9c-.6 1.5 1.4 3.1 4 3.1 2.9 0 4.8-1.2 4.8-2.9 0-1.3-.9-1.7-4.1-1.6-2.5 0-4.4.5-4.7 1.4M260.7 448.7c-.4.6.9 4 2.9 7.5 9.3 16.4 10.3 19 11.8 32.2 1.4 11.8 3.5 18.6 5.6 18.6 1.3 0 1.3-1.2-.1-4.7-.6-1.5-1.5-7.8-2-13.8-1.1-13.3-2.8-18.7-8.8-28.4-6-9.6-8.6-12.7-9.4-11.4M302.1 453.6c-1.2 1.5-2.1 3-2.1 3.4 0 .8-4 2.5-8.2 3.4-2 .5-2.8 1.3-2.8 2.7 0 1.9.4 2.1 3.3 1.5 4-.8 9.1-4.3 12.2-8.6 3.7-5 1.4-7.2-2.4-2.4M307.2 463.2c-.7.7-1.2 2-1.2 3 0 1.1-2 4.1-4.5 6.7-4.6 4.9-5.6 7.1-3.1 7.1 2.6 0 11.6-13.2 11.6-17 0-1.4-1.3-1.3-2.8.2M327.7 475.2c-5.9 7.5-12.4 17.2-12.9 19.5-1.1 4.3 1.1 3.4 3.6-1.4 1.3-2.6 3.9-6.2 5.6-7.8 4.6-4.2 9-10.5 9-12.7 0-2.9-1.6-2.1-5.3 2.4M354.5 472.2c-1.5 3.7 6.5 12.8 10.1 11.4 1.3-.5.9-1.2-1.8-3.8-1.8-1.8-4.3-4.7-5.5-6.3-1.8-2.6-2.2-2.8-2.8-1.3M336.9 484.7c-3.3 7.5-4.8 18.5-4.9 34.4 0 10.6.4 15 1.3 16.4 2.4 3.2 3.5 1 2.2-4.2-1.6-6.2.5-30.7 3.4-40.8 1.2-3.8 2.1-7.8 2.1-8.7 0-3.3-2.1-1.8-4.1 2.9M361.4 553.2c-15.8 10.3-28.7 14.7-45.6 15.7-11.3.6-15.5 1.9-13.2 4 1.4 1.3 24.9-1.5 32.9-4 12.3-3.8 35.5-16.6 35.5-19.5 0-2.2-1.2-1.7-9.6 3.8M267.8 560.7c-2.5 2.8-4.8 8-4.8 10.6 0 1.3 1.1 5.7 2.5 9.7 3.1 9.1 3.1 10.7.1 14.5-1.7 2.2-2.3 3.8-1.9 6 1.2 7.3-1.3 19.9-6.1 31-4.6 10.8-6.7 20.3-5.2 24.2 1.1 2.8 2.3-.1 3.1-7.7.5-4.5 2-9.4 5.1-16.1 4.5-9.6 6.3-18.1 6.4-29.3 0-3.9.6-5.5 3-8.3 1.7-1.8 3-4.2 3-5.2 0-1.1-1.3-4.5-3-7.6-3.9-7.4-4-13.5-.5-18.7 1.4-2 2.5-3.9 2.5-4.2 0-1.3-2.8-.5-4.2 1.1M290.6 588.7c-1.3 1.3-.5 2.9 3.7 8 5.4 6.6 11.4 11.3 14.3 11.3 3.5 0 2.9-1.5-1.3-4.1-5-3.1-14.3-11.8-14.3-13.5 0-1.5-1.5-2.6-2.4-1.7M378.2 733.2c-2.4 2.5-8.5 2.8-13.7.8-1.9-.7-3.2-.7-3.8-.1-1.3 1.3 4 3.7 10.3 4.5 5.3.8 11-2 11-5.4 0-2.6-1-2.5-3.8.2M272 724.7c-2 2.5-2.2 3.7-1.8 11 .4 8.2 1.7 11.3 4.5 11.3 1.2 0 1.3-.6.7-2.8-1.1-3.5-1.1-18.2 0-20.5 1.3-2.7-1-2-3.4 1M295.4 762.4c-2.1 5.4 16.4 13.2 29.7 12.4 6.7-.4 10.9-2.2 9-4.1-.6-.6-2.7-.5-5.8.3-3.2.8-7.2 1-11.6.6-5.7-.7-7.5-1.4-12.4-5-8.1-5.9-8.2-5.9-8.9-4.2M401 773.5c-1.4.8-3.7 1.4-5.2 1.5-1.8 0-2.8.5-2.8 1.5 0 2.7 3 2.8 8.1.4 6.3-2.9 8.4-2 8.4 3.6 0 4.6 2.1 5.7 3.5 2 .8-2.2.7-3.5-.7-6.4-1.5-3-2.4-3.6-5.3-3.8-1.9-.2-4.6.4-6 1.2M413.5 851c-1.9 3.6-1.9 6.4-.1 7.9 1.8 1.5 2.2.8 3.1-5.7.8-5.9-.5-7-3-2.2M388 890.5c-1.4 1.7-5.6 2-6.5.5-.7-1.1-5.4-1.3-7.9-.4-.9.3-1.6 1.5-1.6 2.6 0 1.9.7 1.9 5.6.1.7-.2 1.5 0 1.9.6 1 1.8 7.1 1.2 9.6-.8 1.8-1.4 2.1-2.3 1.3-3.1-.8-.8-1.4-.7-2.4.5"/></svg>