<svg xmlns="http://www.w3.org/2000/svg" width="757.5" height="1200" viewBox="0 0 606 960"><path d="M500.2 152.7 429 165.3l-6.6-3.4c-5.8-2.9-7.8-3.4-15.9-3.7-11.1-.5-17.2.7-26.6 5.1-6.3 3-7.4 3.3-10.9 2.4-2.9-.8-4.5-.8-6.2.2-1.3.6-4.1 2.2-6.3 3.4-2.2 1.1-7.1 2.6-10.8 3.3-7 1.3-13 4.7-14.1 8.1-.5 1.5-5.3 2.6-28.3 6.5-22.3 3.8-28 4.4-28.8 3.4-1.9-2.4-5-3.4-13.1-4.1-5.4-.4-8.4-.3-8.8.4-.4.6-1.9.8-3.5.5-1.5-.3-4.3-.2-6.2.3-2 .6-4.5.6-6.1.1-3.8-1.3-10.3.7-12.8 3.9-1.1 1.4-2.3 4.2-2.6 6.2l-.6 3.6-95.1 16.4c-52.4 9.1-96 16.8-96.9 17.3-2.7 1.3-1.1 4.1 2.1 3.5 18.3-3.7 189.3-32.8 189.8-32.3.4.3.2 2.3-.3 4.4-.7 2.9-1.4 3.8-3.4 4-7.9 1.1-185.3 32.2-185.8 32.6-.2.3-.2 1.2.2 2.1.4 1.2 1.4 1.5 3.3 1.1 4.5-1 181.2-31.6 182.3-31.6.6 0 1 1.5 1 3.4 0 2.6.8 4.1 3.5 6.5 2 1.7 4 3.1 4.5 3.1 3.5 0-2 40.4-7.9 58-6.2 18.4-7.1 22.8-7.1 33.8 0 19.9 2.9 28.8 15 45.7 3.1 4.4 6 8.8 6.3 9.7.9 2.5 6.7 5.8 10.3 5.8 6.7 0 13.4-3 19-8.4 3-2.9 5.6-5 5.9-4.8.3.3.5 2 .5 3.8 0 7.8 3.2 18.3 10 32.4 3.8 8 8.3 18.3 10 23 2.7 7.5 3 9.3 2.5 15-.5 4.8-1.4 7.5-3.6 10.5-3.8 5.4-4.8 10.4-5.8 30.8l-.9 17.2L275 519c-2.9 8-5.8 16.2-6.6 18.2-.7 2-2.5 8.7-3.9 14.9-2.2 9.9-2.3 11.4-1.1 12.8 1.3 1.4 1.3 3.2-.4 14.6-2.2 14.5-2.5 34.2-.9 50 .5 5.5 1.4 17.5 1.8 26.7 1 19.6 2.2 23 10.3 30.3 5.7 5.2 11.1 7 18 6.1 4.3-.6 5.2-.3 9.9 2.9 12.4 8.5 49.8 15.2 65.2 11.6l3.8-.9-.6 4.1c-.5 3.2 0 5.7 1.8 10.2 2.2 5.4 5.7 24.4 5.7 31.1 0 1.4-1.5 6.1-3.4 10.3-4 9-5.3 18.4-3.7 27.4.6 3.4 1.6 9.7 2.2 14 .7 4.8 2.1 9.1 3.4 11 1.9 2.9 2.6 3.2 7.1 3.2 2.7 0 5.9.6 7.1 1.3 3.1 1.7 5.1 1.5 9.2-1 2-1.3 5.3-2.3 7.3-2.4 2.6 0 4.7-.8 6.5-2.5 1.6-1.4 4.1-3.3 5.6-4.3 3.7-2.3 5-5.8 3.7-10.5-.6-2.2-.6-5-.1-7.1.5-1.9 1.2-4.7 1.5-6.2.4-1.6 1.5-2.9 2.9-3.4 5.7-1.7 10.4-4.7 12.5-7.9 1.4-2 3.8-3.9 5.8-4.5 3.2-1.1 6.4-5.1 6.4-8 0-.7 1.4-4.2 3-8 4.1-9.2 4-16.1 0-28.3-3.4-10.1-3.4-11.5 1.6-28.1 4.7-15.7 2.5-26.8-6.4-33.1-3.9-2.7-5.1-3-12-3-4.3 0-9.1.4-10.9.8l-3.2.8-2.3-7.3c-1.3-4.2-2.3-9.8-2.2-13.3.2-75.7.5-85 2.6-86.6l2-1.6-2.1-7.4c-3.2-11.4-6.1-33.7-6.1-46.7 0-19.2-4.6-37-12.6-49.3-4.9-7.5-5.4-8.9-5.4-13.8 0-4.4-.6-6.3-2.8-9.5-2.7-3.9-2.7-4-2.7-21 .1-22.3 1.4-29.2 6.6-34.9 6.7-7.1 8.8-10.9 13.4-24.3 3.4-9.7 5.3-13.5 7.6-15.6 3.7-3.4 6.1-8.8 9.3-20.8 2.7-9.9 3.5-11.5 10.3-19.8 6.7-8.2 8.6-12.7 8.6-20.2 0-9.4-3.7-17.1-11.9-25-3.5-3.4-6.4-6.3-6.4-6.5 0-.2 2-1.5 4.4-2.9 9.3-5.4 15.5-17.2 15.6-29.2 0-7.7-2.5-17.6-6-23.2-2.5-4.1-2.5-4.2.3-4.2 4.9 0 132.9-22.8 134-23.9.7-.7.8-1.4.1-2.1-.6-.6-25.7 3.4-69.8 11.1l-68.9 12-3.4-3.3c-3.8-3.7-4.1-4.8-1.3-4.8 1.7 0 131.9-22.2 137.8-23.6 2.6-.5 2.7-3.8.2-4-.8-.1-33.6 5.5-72.8 12.3m-82.7 11.4c7.7 2.9 13.1 7.3 19 15.5 6 8.3 8.5 15.2 9.2 25.2.5 6.9.4 7.7-3.1 14.7-6.5 13.1-13.5 16.9-34.1 18.3-14.5 1.1-20 2.3-19.2 4.5.2.8 2.1 1.1 5.9.9 4.9-.3 5.6-.1 6.1 1.7.3 1.1.1 3.8-.4 5.8-1.4 6.1-1.2 8.5.8 8.1 1.2-.2 2.2-2.1 3.1-6.3 1.8-8.1 3.9-10.1 11.2-10.9 7.2-.8 10 .4 17.8 7.8 6.5 6.1 9.2 11.1 9.9 18 .7 7-2.5 15.1-9 22.8-7.7 9-7.7 9-9.2 17.7-1.8 10.2-3.3 13.6-8.3 18.7-3.2 3.3-4.5 5.9-6.7 13-3.9 12.9-7.7 19.4-14.9 25.5-7.4 6.4-9.5 8.8-9.6 11.1 0 2.2.8 2.3 3.2.1 2.3-2 2.3-1.4-.3 8.3-1.8 6.8-2 9.7-1.5 20.4.3 6.9 1.3 15.2 2.2 18.5l1.5 6-4.8 4.3c-6.5 5.9-16.5 10.5-30.8 14.3-10.5 2.8-13.6 3.2-25 3.3-14.4 0-21.1-1.4-30-6.4l-5-2.9-2.3-9.6c-3.3-13.9-5.6-19.5-11.6-27.9-2.9-4-6.1-9.5-7-12.1-1.5-4.7-2.3-18.5-1-19.8.3-.3 3.1.8 6.1 2.5 4.8 2.7 6.1 3 11.2 2.5 7.3-.6 10.7-2.2 9.1-4.2-.8-1-1.8-1.2-2.9-.6-.9.5-3.7 1.1-6.2 1.5-4.4.6-5 .4-12.3-4.4-4.2-2.8-7.6-5.5-7.6-5.8 0-.4 3.5-3.7 7.8-7.3l7.8-6.7 3.4 1.9c4.1 2.1 10.3 2.5 11.9.6 1.6-2 .3-2.7-3.8-2.1-2.9.5-4.2.1-6.3-1.8l-2.7-2.3 1.9-6c1.1-3.3 2.4-8.6 3-11.7 1.5-7.8 2.7-8.8 10.8-8.8 10.2-.1 18.2-3.7 18.2-8.2 0-2.4-.6-2.3-4.1.6-2.6 2.2-10.3 4.6-14.7 4.6-.9 0-4.5-1-7.8-2.2-5-1.8-6.9-2-10-1.3-4.3 1.1-6.2 4.5-2.5 4.5 1.1 0 2.3-.5 2.6-1 .8-1.2 5.2-1.3 5.9-.1.3.4.1 2.1-.4 3.7s-1.6 6.7-2.5 11.4c-.9 4.7-2.6 10.1-3.7 12-1.1 1.9-6.1 6.9-11.1 11-6.1 5-9.8 9-11.4 12-1.3 2.5-4.4 6.4-6.9 8.7-4.3 4-5 4.3-10.3 4.3-5.8 0-10.1-1.9-10.1-4.5 0-.7-2.5-4.4-5.5-8.2-8.6-10.7-13.2-20.3-14.4-30.3-2.2-17-1.1-26.9 4.4-41 1.8-4.7 4.3-12.2 5.4-16.6 2.1-8.3 6.6-46.7 5.7-49-.3-.7-2.2-2.2-4.4-3.3-6.5-3.3-6.9-4.3-4.9-11.9.9-3.7 1.7-7.5 1.7-8.4 0-2.2 2.7-3 9.7-2.7 3.2.2 7.2-.1 8.9-.5 4.1-.9 4.9 1 2.3 5.2-2.1 3.6-5.3 4.7-11 3.9-2.8-.4-3.9-.2-3.6.6.2.7 2.9 1.2 6.8 1.3 5.7.1 6.8.4 9.8 3.2 3.2 3 3.3 3.5 2.7 7.8-.4 3.4-.3 4.5.7 4.2.6-.3 1.3-2.5 1.5-5 .2-3.6-.2-5.1-2.2-7.5l-2.5-2.9 3.2-1.7c3.5-1.8 18.7-3.5 18.7-2.1 0 1.8-2.3 9-4.2 13.6-1.7 4.1-2.8 5.1-7.4 7.3-6.1 2.9-6.8 3.9-2.4 3.3 2.9-.4 3-.4 2.5 3.1-.3 2-.9 8.2-1.4 13.8-1 10.8-.6 13.9 3.1 22.5l2 4.7-2.8 7.3c-3.4 9.1-7.7 14.9-15.7 21.3-7.7 6.2-12.7 15.1-12.7 22.6 0 4.9 1.5 7.3 3.1 4.8.5-.8.9-2.9.9-4.8 0-5.7 3.6-11.5 12.3-19.7 11.6-11 13.3-13.5 16.4-23.3 6.3-19.6 21.6-34.9 36.9-36.7 4.1-.5 6.6 0 14 2.6 10.2 3.7 15.4 4.7 15.4 3.1 0-.5-1-1.6-2.2-2.2-2.1-1.1-2.1-1.2-.3-2.5 1-.8 4.4-2.3 7.4-3.4 3.1-1.1 7.1-2.8 8.9-3.8 3.4-1.7 9.1-9.4 11.8-15.7l1.4-3.6 3.8 3c2 1.7 5.8 3.6 8.4 4.2 4.1 1.1 5.5 1 10.3-.5 3.6-1.1 5.5-2.2 5.5-3.3 0-1.1-.6-1.4-2.2-.9-6.8 1.9-11.7 1.8-16.2-.4-7.8-3.7-19.6-18.3-19.6-24.1 0-5 21.3-28.3 30.5-33.3 13.9-7.6 29.7-9.8 41-5.5m-49.7 6.5c-2.5 2.5-2.8 2.6-4.3 1.1-2.3-2.3-1-3.7 3.3-3.7h3.7l-2.7 2.6m-6.1 2.5c.9.9.8 1.8-.4 3.5-2.3 3.6-2.6 3.4-6.1-3.9-.6-1.2 5.3-.8 6.5.4m-6.8 4.5c2.7 3.4 2.6 4.5-.3 7.3l-2.3 2.2-.6-2.9c-.3-1.6-1.7-4-3.1-5.3-3.4-3.2-3.3-3.9.8-3.9 2.5 0 4 .7 5.5 2.6m-8.6 2.6c4.8 6.4 5 7.6 2.5 10.8-2.9 3.7-3.8 3.7-3.8.1 0-4.4-4.1-9.6-7.3-9.4-3.5.2-3.4-1.2.1-3.1 4.1-2.3 5.9-1.9 8.5 1.6m-5.6 8.4c2.1 4.2 1.4 4.9-5.9 5.8-7 1-55.9 9.5-58.1 10.2-1.5.5-1.7.1-1.1-3.8.4-2.4.8-4.5 1-4.7.4-.4 57.1-10.8 60.2-11 1.6-.1 2.7.8 3.9 3.5m-78.7 3.6c2.5 4.1 2.5 8.4.1 12.4-1.8 2.9-5.6 5-6.5 3.5-.3-.3.1-2.5.7-4.8 1-3.9.6-7-1.9-13.1-.4-.8.4-1.2 2.5-1.2 2.5 0 3.6.7 5.1 3.2m-24.6-.8c2.3.9 3.7 2.4 4.5 4.6 1.5 4.5 1.5 4.7-1.8 5.3-4.5.9-6.8-.2-7.5-3.4-.7-3.5-2.6-3.9-2.6-.5 0 1.7-.7 2.6-2.6 3-1.5.4-2.8.5-3 .3-.2-.2.2-2.1.9-4.3 1.2-3.5 3.8-5.4 8.5-6.3.1-.1 1.8.5 3.6 1.3m15.2 2.1c2.4 5.8 1.6 12.2-2.1 15.8-2.5 2.6-3.4 2-2.2-1.3.9-2.5.8-3.6-.5-6.3-2.8-5.4-4.7-10.5-4-11.1.3-.3 2.1-.6 3.9-.6 2.9 0 3.6.5 4.9 3.5m20.2-.2c2.7 5.6-1.5 14.7-6.7 14.7-1.9 0-1.9-.2-.5-3.5 1.9-4.5 1.8-9.5-.2-12.3-1.6-2.3-1.6-2.3 2.2-2 3.1.2 4.2.9 5.2 3.1m69.7 9c0 4.1.6 6.4 2.8 9.8l2.8 4.4-4-4.3c-5-5.4-8.1-12.9-6-14.3 3.4-2.1 4.4-1.1 4.4 4.4m-6 4c2.6 6.3 2.9 8.4 2.9 17.2 0 5.5-.3 12-.7 14.5-.7 4.4-.9 4.6-7 7-5.7 2.3-7.5 2.5-22.7 2.5-14.9 0-17 .2-21.3 2.2-5.7 2.6-15.6 11.9-19.9 18.5-1.7 2.6-3.5 4.8-3.9 4.8-1.4 0-3.9-8.2-3.9-12.9 0-2.7.5-9.5 1-15 1-9.4 1.4-10.6 4.6-14.9 4.3-5.5 4.9-7.1 5.8-13.7.4-2.8 1.1-5.6 1.5-6.3.7-1.1 51.5-10.8 58.1-11.1 2.2-.1 2.9.8 5.5 7.2m13.3 12.1c2.6 1.6.1 11.7-4.1 16.9l-2.3 2.9.1-10.5v-10.4l2.6.2c1.4.1 3.1.5 3.7.9m43.3 224.5c-.6 1-3.5 3.5-6.6 5.6-3 2-5.3 4.1-5 4.6.8 1.2 6.2-1.6 10.1-5.3l3.1-2.9 3.5 4.8c2 2.6 4.4 6.6 5.5 8.8 2.7 5.4 6.9 28.6 8.8 48 2.1 22 4.4 39.1 5.6 42.2.5 1.4.6 2.9.2 3.3-12.8 11-24.1 17.3-38.2 21.2-6 1.6-9.1 1.9-14.9 1.4-4.1-.3-7.8-.8-8.3-1.2-.5-.3-.9-7.3-.9-15.5v-15.1l2.9-2.6c1.5-1.5 4.9-4.6 7.4-6.8 4.8-4.4 8.7-10.9 8.7-14.4 0-3.3-2.1-1.9-6.2 4-2.2 3.2-6.1 7-9.5 9.3-8.8 5.8-9 6.1-9.7 18.9-.4 6.2-.9 14.8-1.2 19l-.6 7.7-6.1 2c-12.5 4.1-31.1 5.3-42.5 2.6-8.9-2.1-14.5-5.3-24-13.6-8.1-7-8.3-7.3-7.7-10.7 1-5.2 7.8-27.4 11.3-36.8 4.1-11.1 5.1-17.1 5.6-35.9.5-16.9 1.3-21.6 4.7-25.9l2.1-2.6 4.1 3.4c2.3 1.8 6.9 4.3 10.1 5.5 7.7 2.9 24.9 4.5 32.5 3.1 6.7-1.2 20.9-5.8 21.6-7 1.3-2-1.9-1.9-10.2.5-15.5 4.5-20.5 5-31.6 3.2-10.3-1.8-13.9-3.2-19.8-7.8-2.8-2.2-3.8-3.9-4.3-7-.4-2.3-.5-4.4-.3-4.6.3-.2 2.2.8 4.2 2.2 8.9 5.9 27.2 8.8 42.4 6.6 18.4-2.7 40.5-11.2 49.1-18.9l4.5-4 .3 4.4c.2 2.4-.2 5.2-.7 6.3m22.1 129.8c.2 6 .3 26.8.3 46.4v35.6l-3-2.3c-4.2-3.2-11-4.5-17.6-3.5-6.6 1.1-10.1 2.4-11.7 4.4-2.1 2.5.5 3.1 4.1.9 7.6-4.6 18.1-3.5 24.1 2.6 4.5 4.5 5.6 8 3.1 9.9-4.2 3-26 1-35.2-3.2-6.2-2.8-10.9-9.2-11.7-15.9-1.7-14.2-1.7-14.6 0-14.6 1.5 0 1.5-.2 0-2.5-2-3-11.1-35.9-12.1-43.5-.3-3-.8-6.2-1.1-7.1-.4-1.4.9-1.5 10.4-1.1 7.9.3 12.5 0 17.2-1.2 10.3-2.6 21.1-7.3 26.5-11.5 2.8-2.2 5.3-4 5.8-4 .4-.1.8 4.7.9 10.6M289 584.3c6.2 3.1 7 3.2 20 3.5 9.3.3 15.4-.1 19.8-1.1 3.4-.8 6.2-1.1 6.2-.6 0 .4-1.4 3.9-3.2 7.6-2.6 5.6-5.3 8.8-14.6 17.9-6.9 6.7-11.2 11.6-10.8 12.3.5.8 2.5-.4 5.8-3.4 2.8-2.6 6-5.1 7.1-5.7 1.8-.9 1.9-.8 1.3 1.8-.4 1.6-1.1 6.9-1.6 11.9-.9 8.9-1 9-5.2 12.7-2.3 2-3.9 4-3.6 4.3.3.4 2.3.2 4.5-.4 5.5-1.6 19-1.3 25.8.4 9.2 2.4 15.8 6.1 24.6 14.2 9 8.1 13.8 10.1 28.6 12.3 9.6 1.4 18.5.3 28.7-3.5 15.7-5.9 28-1.9 30.7 10.2 1.4 6 .8 9.4-3.8 24.2-2.9 9.5-2.8 11.6 2.2 28 3.1 10.5 3.1 14.5 0 21.3-1.4 2.9-2.5 6-2.5 6.9 0 2.8-4 6.9-6.6 6.9-1.3 0-2.4.6-2.4 1.3 0 2.6-10.4 10.7-13.8 10.7-.5 0-1-2.1-.9-4.8 0-3.2-1.3-8.2-4.2-15.5-4.6-12.1-4.7-13.1-2.5-29 1.4-10.5 1.4-12.1 0-17.8-2.3-8.8-4.8-12.3-10.8-15.3-8.1-4.1-14.5-3.1-22.6 3.2-3.1 2.4-5.1 3.1-12.2 3.8-16 1.7-31.4 1-43-1.9-10.5-2.7-24.9-8.9-30.5-13.1-1.6-1.3-4.1-2.9-5.4-3.6-2.3-1.2-2.3-1.1-1.7 1.4.6 2.6.6 2.6-4.9 2.6-5.1 0-5.9-.3-10-4.1-2.4-2.2-5.4-6.2-6.7-8.7-2.1-4.4-2.3-5.8-2.1-20.1.2-10.7-.3-20.4-1.7-31.5-2.5-20.1-2.5-23.8.1-40.1l2.1-13.3 6.7 5.4c3.6 3 9.5 6.9 13.1 8.7m61.4-.6c.2 1.6.8 4.6 1.1 6.8.4 2.2 3.1 12.8 6 23.5 4.3 15.8 5.4 21.4 5.7 29.2l.4 9.7-4.6-3.3c-2.5-1.9-6-4.1-7.8-5-4.2-2.2-16.8-4.6-23.6-4.6h-5.3l.4-10.3c.5-12.5 1.9-16.5 8.9-25.9 2.9-4 6.6-10.3 8.1-14 2.3-5.4 3.3-6.8 5.8-7.6 4.3-1.4 4.3-1.4 4.9 1.5m56.8 116.4c2.9 1.6 6.5 7.2 7.7 12.2.6 2.6 1 5.1.7 5.5-.2.4-.9 6.6-1.6 13.8l-1.1 13 3.6 10.9c4.9 14.6 5.5 22.6 2.5 32.8-2.2 7.3-2.2 7.8-.6 9.6 2.4 2.7 1.2 6.7-2.4 8-1.6.5-3.3 1.8-3.9 2.9-.7 1.4-2.4 2.1-6.1 2.4-2.8.3-5.8 1.2-6.8 2.2-1 .9-3.1 1.6-4.6 1.6-2.5 0-2.7-.3-2.1-2.3 1.6-5.2 1.6-7.9.1-11.2-1-1.9-1.4-3.9-1.1-4.4 1-1.7-1.2-2.1-2.5-.6-1 1.3-1 2.3.5 5.4 2.7 6-.1 12.1-5.6 12.1-4 0-5.7-3.1-6.9-12.5-.6-4.4-1.5-10-2.1-12.5-1.6-7.5-.3-17.5 3-23.4 6.6-11.4 8.1-14.6 8.3-17.5.4-3.9-1.4-4.1-2.5-.2-1 4.2-2.4 4.6-1.9.6.6-5.3-3.7-28.6-5.9-31.8-2.4-3.4-1.7-9.2 1.3-10.8 2.4-1.3 3.5-.5 1.9 1.5-.8.9-.9 1.6-.2 2.1.6.3 3.4-1.7 6.3-4.5 2.8-2.8 6.5-5.5 8.2-6 3.3-1 11-.4 13.8 1.1"/><path d="m371.3 246.7-3 3.8h-13.4c-12.5 0-13.8.2-19.1 2.7-3.4 1.6-5.8 3.3-5.8 4.2 0 2-.1 2.1 5.5-1 4.6-2.6 4.9-2.7 17.6-2 14.5.8 16.9.1 21.3-5.7 4.9-6.4 1.9-8.2-3.1-2M296.1 258.7c-5.8 2.1-13.1 9.1-13.1 12.6s1.8 3.5 3.1-.1c2.7-7 11.4-12.1 18.6-10.7 3.9.7 5.4 0 4.6-2-.7-2-7.4-1.8-13.2.2M392.1 266.1c-.6 1.8-1.1 10-1.1 18.3 0 23.6-.9 26.4-15.3 50.6-12.5 21.1-18.5 35.6-15.9 38.2.8.8 1.4.5 2-1.3.5-1.3 2.1-5.9 3.7-10.3 1.8-5.1 5.7-12.2 11.2-20.4 9.4-13.9 12.1-18.9 15.5-28.3 2.1-5.9 2.3-8 2.3-28.1 0-12-.3-21.8-.7-21.8-.3 0-1.1 1.4-1.7 3.1M405.6 265.5c-2.7 4.1-4.2 12.1-2.6 14 1.2 1.5 1.4 1.5 2.3 0 .5-.9.6-2.7.3-3.9-.3-1.3.3-3.8 1.4-5.9 3.2-6 2.1-9.5-1.4-4.2M366 266.7c0 .3 1.2 3.6 2.6 7.2 2.1 5.2 2.5 7.4 2 11.3-.5 3.9-.4 4.8.8 4.8 3.8 0 2.8-15.1-1.4-21-2-2.8-4-3.9-4-2.3M435.3 267.2c-.6.7-1.3 3.1-1.7 5.3-1.5 8.9-2.3 10.1-10.2 15-8.1 5.1-11.5 8.8-9.6 10.7.9.9 1.9.6 3.9-1.3 1.6-1.4 5.5-4.5 8.8-6.9 3.3-2.4 6.3-4.8 6.7-5.4 1.6-2.4 4.9-16.9 4-17.8-.5-.5-1.3-.4-1.9.4M317 282.7c0 1 1.7 5.2 3.8 9.3 3.5 7.1 4 7.6 8.2 8.8 2.5.7 7.9 2.4 12 3.7 4.6 1.4 7.9 2 8.5 1.4 1.8-1.8-2.2-4-11.4-6.4-5-1.3-9.9-2.9-10.7-3.6-.9-.7-3.1-4.3-5-8.1-3.3-6.6-5.4-8.6-5.4-5.1M402.1 308.2c-.6 1.7-1.1 6.1-1.1 9.7 0 8 2.5 13.1 6.5 13.1 3.3 0 3.2-1.1-.6-6.3-3-4-3.1-4.5-2.5-11.4.6-7.7-.5-10.3-2.3-5.1M344.9 312.3c0 .1-.2 2.9-.3 6.2-.3 7.1-3.2 13.5-8.4 18.2-1.9 1.7-3.1 3.6-2.7 4.2.3.6 1.1.8 1.7.5.8-.5.9-.1.4 1.2-2.5 6.2-.4 20.4 2.9 20.4 1.9 0 1.9-1.6-.1-9.5l-1.6-6.3 2.8-6.4c1.5-3.4 3.8-8 5.1-10 4.3-7 5.3-16.8 1.8-18.2-.8-.3-1.5-.4-1.6-.3M297.4 326.9c.6 5.9 5.9 16.2 10.2 20 4.2 3.8 8.8 4.1 16.6 1.1 6.7-2.6 9.5-4.7 8.2-6-.7-.7-2.9-.2-6.8 1.6-11 5-16.7 2-24.5-13.1-4.2-8-4.2-8-3.7-3.6M261.1 341.6c-4.9 7.3-6.5 12-3.8 11.2.6-.2 2.1-2.2 3.2-4.5 2.9-5.9 5.4-8.3 8.6-8.3 2.9 0 3.3.3 7 5.3 2 2.7 3.9 2.8 3.9.3 0-2.1-9.7-11.6-11.9-11.6-1.3 0-3.6 2.4-7 7.6M391.7 345.5c-2.9 3-7.9 7-11.1 8.9-4.7 2.9-5.5 3.7-4.1 4.2 1.1.5 3.6-.2 6.4-1.7 5.7-3 17.6-14.3 16.7-15.8-1.3-2-2.7-1.2-7.9 4.4M346.1 379.5c-9.5 3.9-10.1 4.3-8.2 5.4 2.8 1.7 18.1-4.7 18.1-7.6 0-1.8-.4-1.7-9.9 2.2M369 377.9c0 2.5 4.8 6.3 7.4 5.9 3.3-.5 2.9-2.6-.7-4.2-1.9-.7-3.8-1.9-4.1-2.5-1.1-1.8-2.6-1.3-2.6.8M314.6 384.9c-2.7 4.2-5.4 5.6-8.6 4.6-1.4-.5-2-.2-2 .9 0 1.2 1 1.6 4 1.6 4.8 0 11-4.8 11-8.6 0-3.5-1.6-2.9-4.4 1.5M321.2 395.3c-4.5 4.5-8.2 8.6-8.2 9 0 .4.9.7 2.1.7 2.3 0 13.1-10.6 15.5-15.3 2.7-5.1-.8-3-9.4 5.6M366 388.8c0 .4 1.6 2.4 3.6 4.3 4.2 4 5.9 7 6.8 12.1.8 4.5 3.6 5.3 3.6 1-.1-3.9-3.1-10.2-7.2-14.5-3.2-3.4-6.8-4.9-6.8-2.9M355.6 391.3c-6.1 9.2-5.3 52.8.8 46.7.6-.6.5-4.8-.2-11.2-1.6-14.1-1.5-18.3.8-28 1.1-4.6 2-8.6 2-9.1 0-1.5-2-.6-3.4 1.6M384.4 456.3c-14.2 9.9-34.4 16.7-49.7 16.7-7 0-8.9.3-9.4 1.5-.3.9-.4 1.7-.2 1.9.9.8 24-1.5 29.4-2.9 10.7-2.7 39.5-17.7 39.5-20.5 0-2.1-3.8-.8-9.6 3.3M290.8 463.7c-2.6 3-4.8 8.1-4.8 11.1 0 1.6 1.1 6.2 2.5 10.2 3.2 9.3 3.1 10.2-.5 14.3-2 2.4-2.6 3.7-1.9 4.4 2.1 2.1-.6 20.3-4.1 28.4-1.8 4.1-4.1 9.6-5.1 12.4-1.9 5.2-2.6 16.5-1 16.5 1.2 0 1.8-2.1 2.6-9.5.4-4 2.2-9.3 5.2-15.8 4.1-8.9 4.6-10.8 5.5-21.4.9-10.4 1.4-12.1 3.9-15.6 1.6-2.2 2.9-4.5 2.9-5.2 0-.6-1.4-4-3.2-7.5-4-8.1-4.2-13.4-.5-18.8 1.5-2.1 2.7-4.1 2.7-4.5 0-1.4-2.7-.7-4.2 1M312.6 492.9c-.7 1.1 5.7 9.4 11.1 14.2 4.5 4.1 8 5.6 9.5 4.1.6-.6-1.4-2.6-5.5-5.5-6.9-5-11.7-10-11.7-12.3 0-1.5-2.6-1.9-3.4-.5M400.4 637.1c-1.6 1.8-2.7 2-6.9 1.6-2.7-.3-6.3-.9-7.9-1.3-4.5-1.1-2.8 1.8 2 3.3 6.2 1.9 11.8 1.6 14.8-.8 2.8-2.2 3.5-4.9 1.3-4.9-.8 0-2.2.9-3.3 2.1M294.6 628.2c-1.8 2.6-2.2 15.1-.6 19.3.9 2.4 3.5 4.3 4.6 3.3.3-.3-.3-3.2-1.2-6.6-1.7-6.1-1.3-14.5.7-15.7 1.4-.9 1.1-2.5-.5-2.5-.8 0-2.2 1-3 2.2M317.5 666c-1.9 3 11 10.4 21.2 12.1 10.5 1.7 19.3 0 18-3.5-.5-1.3-1.2-1.4-3.2-.6-1.5.6-6.4 1-11 1-8.3 0-8.4 0-15.1-4.6-7.9-5.4-9-5.9-9.9-4.4M424.1 677.1c-2.5 1.1-5.1 1.7-5.8 1.5-1.7-.7-2.9 2.2-1.5 3.6.7.7 2.5.3 5.7-1.1 2.6-1.2 5.5-2.1 6.5-2.1 2.6 0 4.3 2.6 3.6 5.5-.9 3.3.1 5 2 3.4 2.3-1.9 1.7-7.3-1.1-10.3-2.9-3.1-3.7-3.2-9.4-.5M436.5 754.4c-2.1 3.1-1.6 8 .7 8.4 1.3.3 1.7-.3 1.7-2.5 0-1.5.2-4 .6-5.6.9-3.4-.9-3.6-3-.3M409.8 794.9c-2.3 1.3-3.1 1.4-4.8.3-3.8-2.3-11-1.1-11 2 0 .5 1.9.8 4.3.8 2.3 0 6.1.1 8.4.2 4.5.2 6.7-1 6.1-3.4-.2-1.2-.7-1.2-3 .1"/></svg>