<svg width="727.041" height="697.051" xmlns="http://www.w3.org/2000/svg"><path style="fill:#000;stroke-width:1.33333" d="M344.708 694.638c-2.219-1.46-6.271-2.636-9.102-2.64-3.886-.005-6.056-.96-9.103-4.007-2.2-2.2-5.32-4-6.934-4-4.627 0-8.447-3.493-10.93-9.998-2.02-5.285-2.775-6.002-6.324-6.002-3.088 0-5.416-1.48-9.956-6.333-7.987-8.538-10.138-13.696-8.37-20.065.754-2.714 1.374-7.096 1.379-9.738.012-7.342 4.7-12.884 16.712-19.752 13.613-7.784 14.35-8.403 32.178-27.093 9.66-10.127 15.455-17.337 16.515-20.548 1.953-5.918 1.127-21.735-2.16-41.333l-2.268-13.529-7.986-1.571-7.986-1.571-3.849 4.668c-5.205 6.315-11.528 8.3-20.341 6.388-3.745-.812-9.208-1.738-12.141-2.056-18.218-1.979-26.61-3.605-28.79-5.579-1.339-1.21-3.38-4.98-4.538-8.378-4.336-12.73-4.394-12.76-40.762-20.91-55.089-12.347-67.158-15.44-68.91-17.662-.917-1.163-1.667-4.727-1.667-7.92 0-7.044 4.458-12.38 10.273-12.299 5.137.072 28.812 5.182 81.727 17.642 9.9 2.33 18.52 4.253 19.157 4.272 1.69.05 5.775-11.012 11.066-29.966 4.264-15.277 4.6-17.78 4.02-30-.408-8.613-2.181-19.706-5.01-31.334-3.946-16.225-4.387-20.037-4.472-38.666-.052-11.367.417-26.967 1.041-34.667l1.135-14-6.737-7.082c-7.763-8.161-11.365-16.546-14.038-32.674-1.798-10.851-7.268-26.717-7.439-21.577-.133 4.012-6.713-8.11-6.768-12.47-.035-2.835-1.413-4.32-7-7.54-5.942-3.426-6.955-4.592-6.955-8 0-2.195-1.273-5.79-2.829-7.99-7.62-10.774-15.517-32.922-14.199-39.82.593-3.098.38-3.194-5.845-2.644-15.39 1.36-28.301 3.536-35.08 5.911-13.895 4.867-18.081 3.207-27.448-10.882-13.484-20.284-28.137-56.533-29.518-73.025-2.171-25.924 11.769-48.656 37.658-61.41C152.963 1.444 155.131.861 166.352.274c11.936-.624 12.606-.503 21.34 3.87 13.386 6.701 24.353 18.252 31.01 32.662 2.937 6.357 5.34 12.374 5.34 13.372 0 .997 1.223 3.036 2.717 4.53 2.134 2.135 3.709 2.532 7.334 1.852 3.015-.565 4.615-.352 4.615.616 0 2.495 8.89 1.654 18.684-1.768 15.497-5.414 45.125-11.682 55.983-11.844 10.354-.154 52.364 2.23 78 4.425 8.067.69 20.967 2.837 28.667 4.77 11.521 2.89 18.13 3.635 37.333 4.201 13.023.385 24.096 1.3 25.06 2.073 1.851 1.484 20.474 4.423 38.94 6.145 10.464.976 12.194 1.585 22.553 7.935 6.172 3.783 12.383 6.878 13.803 6.878 1.448 0 6.368 3.954 11.2 9 17.768 18.553 35.439 50.553 37.85 68.54 3.975 29.668-8.185 61.134-46.705 120.855-5.023 7.788-7.47 10.55-8.268 9.333-1.218-1.857-2.75-.326-16.304 16.3-11.161 13.69-42.63 42.265-51.766 47.004-5.32 2.76-17.84 17.343-19.682 22.926-2.255 6.83-.682 17.947 5.663 40.042 7.439 25.9 10.621 60.394 7.874 85.349-.726 6.591-1.175 12.131-.999 12.31.563.57 27.256 7.008 29.061 7.008.954 0 3.138-3.75 4.854-8.334 1.716-4.583 4.263-10.876 5.66-13.985 1.397-3.109 2.54-6.259 2.54-7 0-.741.529-1.348 1.176-1.348.647 0 3.635-3.75 6.64-8.333 12.568-19.173 32.697-35.482 50.657-41.043 9.428-2.92 26.217-3.469 36.193-1.185 7.387 1.691 19.352 7.556 25.92 12.705 11.447 8.975 23.51 29.173 29.547 49.472 2.874 9.665 3.635 15.562 4.342 33.667l.858 21.95 24.38 5.836c27.335 6.543 28.451 7.25 28.616 18.127.097 6.427-2.463 11.543-7.348 14.684-2.676 1.72-5.302 1.377-25.648-3.357-12.467-2.9-23.632-5.568-24.81-5.928-1.626-.496-2.877 1.367-5.173 7.709-11.265 31.109-32.12 56.38-56.797 68.823-23.836 12.02-48.091 9.21-69.637-8.068a699.176 699.176 0 0 0-11.614-9.059c-15.85-12.056-26.756-46.239-25.75-80.704l.506-17.37-15.22-3.732c-11.923-2.923-15.447-3.366-16.265-2.044-.574.929-1.457 6.655-1.962 12.725-1.027 12.327 1.863 32.117 8.925 61.125 5.317 21.84 6.337 36.194 2.982 41.944-3.664 6.279-12.108 9.93-33.597 14.53-19.279 4.126-26.507 7.033-52.783 21.226-9.15 4.943-9.28 4.968-26.667 5.273-15.47.272-17.93.005-21.472-2.326zm34.96-6.118c3.331-.403 8.273-2.5 12.109-5.138 15.366-10.57 29.042-15.607 56.058-20.645 14.596-2.722 24.263-6.268 26.367-9.671 2.083-3.371.668-14.549-3.95-31.204-7.536-27.185-9.154-38.448-9.095-63.344l.053-22.14-7.354-1.645c-4.045-.905-7.49-1.443-7.655-1.194-.165.249-1.365 2.152-2.667 4.23-3.323 5.305-11.834 8.82-21.492 8.878-14.084.083-13.505-.579-14.38 16.45-.477 9.284-1.789 18.159-3.484 23.56-2.42 7.716-3.978 9.912-14.185 20-6.307 6.234-15.88 16.738-21.275 23.342-11.126 13.621-13.77 15.824-27.003 22.488-5.211 2.624-9.826 5.34-10.256 6.035-.43.695-2.589 1.661-4.798 2.146-4.898 1.076-11.953 6.783-11.953 9.67 0 7.006 9.947 9.103 17.334 3.653 4.588-3.385 9.333-4.41 9.333-2.017 0 .725-2.438 2.856-5.418 4.737-7.436 4.694-6.698 7.728 2.099 8.627 3.659.373 8.127 1.717 9.93 2.986 2.714 1.91 5.233 2.184 14.666 1.592 6.264-.393 13.922-1.021 17.017-1.396zm-32.96-8.889c0-2.014 6.493-5.591 7.792-4.293.43.43.14 1.802-.642 3.05-1.81 2.889-7.15 3.817-7.15 1.243zm93.334-43.102c0-.437 2.4-3.522 5.333-6.854 6.24-7.09 6.548-9.603 1.914-15.678-2.558-3.354-3.314-5.74-3-9.475.462-5.5 3.748-8.1 3.76-2.975.003 1.71 1.485 5.51 3.291 8.444 5.382 8.737 4.126 21.674-2.554 26.313-1.691 1.174-8.744 1.356-8.744.225zm157.333 23.128c20.03-7.332 42.443-28.761 53.988-51.619 4.136-8.188 10.353-24.15 9.671-24.832-.245-.245-13.918-3.537-30.385-7.316-22.125-5.077-30.539-7.552-32.231-9.48-5.465-6.223-3.898-18.835 2.977-23.968 3.322-2.48 3.626-2.443 33.73 4.19 16.708 3.68 30.865 6.692 31.462 6.692 1.947 0 2.672-16.375 1.32-29.796-3.18-31.547-18.41-60.834-38.094-73.26-20.333-12.836-46.773-12.175-68.249 1.705-32.655 21.107-53.872 62.528-55.824 108.987-.852 20.273.706 32.476 6.23 48.82 4.844 14.33 7.45 19.203 12.52 23.415 2.293 1.904 8.38 7.312 13.527 12.016 18.998 17.363 38.454 22.098 59.358 14.446zm-42.44-16.153c-20.019-33.033-24.528-79.846-12.025-124.846 2.99-10.762 8.053-21.65 15.5-33.334 9.937-15.59 37.088-39.743 40.66-36.171.803.803 1.2 1.673.883 1.933-.318.26-3.578 2.495-7.245 4.967-14.909 10.05-30.221 27.827-39.018 45.296-9.685 19.237-16.469 60.612-13.652 83.276 2.52 20.275 8.091 37.877 17.37 54.867 4.65 8.517 5.29 11.166 2.693 11.166-.456 0-2.78-3.22-5.165-7.154zm-236.893 15.308c9.868-4.056 24.134-11.297 30.445-15.453 2.078-1.368 9.373-9.136 16.21-17.261 6.837-8.126 14.916-17.174 17.953-20.107 5.305-5.122 5.402-5.362 2.464-6.058-1.682-.4-3.255-1.75-3.496-3-.335-1.736.509-2.275 3.557-2.275 5.137 0 11.332-5.203 13.884-11.662 2.594-6.566 4.105-21.508 2.993-29.596l-.885-6.436-8.23-1.69c-4.526-.93-11.464-1.586-15.42-1.458-4.568.147-8.33-.514-10.315-1.816-4.548-2.98-8.553-11.765-9.59-21.034-.497-4.45-1.586-8.317-2.42-8.594-1.064-.353-.918 2.2.49 8.558 1.167 5.263 2.082 16.606 2.184 27.061.217 22.2-.897 24.821-17.629 41.478-6.34 6.313-13.636 13.813-16.211 16.667-2.785 3.086-9.38 7.551-16.275 11.019-6.376 3.206-12.636 6.983-13.912 8.393-2.874 3.176-5.08 20.76-2.93 23.352 1.146 1.38 2.075 1.21 4.707-.86 1.804-1.42 5.945-2.98 9.203-3.468 3.257-.489 6.25-1.42 6.651-2.068.945-1.53 5.905-1.538 5.905-.01 0 1.943-2.968 3.692-10.346 6.1-10.173 3.318-12.463 9.65-4.54 12.553 5.16 1.89 5.345 1.861 15.553-2.334zm-19.334-26.154c0-1.644 1.05-2.068 4.334-1.751 2.383.23 4.333 1.017 4.333 1.75 0 .734-1.95 1.522-4.333 1.752-3.285.317-4.334-.107-4.334-1.751zm420.723-46.062c2.877-3.179 3.116-11.399.405-13.93-1.773-1.655-35.304-9.834-87.128-21.253-26.345-5.804-26.698-5.844-29.303-3.308-2.922 2.845-3.672 12.11-1.181 14.601 1.527 1.528 105.296 26.21 111.278 26.469 1.945.084 4.54-1.045 5.929-2.579zm-311.39-44.542c0-1.57-3.585-8.613-6.942-13.636-4.134-6.187-4.687-10.612-1.814-14.505 2.925-3.963 5.54-.757 3.698 4.53-1.251 3.589-.933 4.523 3.167 9.314 2.507 2.928 4.558 5.886 4.558 6.573 0 2.415 5.056 5.784 9.847 6.561 5.824.945 16.233-2.645 18.172-6.268 1.726-3.226-.048-4.29-6.223-3.732-3.915.353-5.292-.22-7.461-3.103-2.459-3.268-2.506-3.823-.626-7.333 1.12-2.088 3.64-6.797 5.601-10.464 2.902-5.423 3.437-7.835 2.867-12.928-.767-6.854-3.503-13.016-8.364-18.84-1.899-2.276-3.125-5.447-3.093-8l.054-4.232 2.267 4c2.232 3.937 2.283 3.674 3.193-16.667.509-11.366 2.486-31.166 4.394-44 6.397-43.023 6.523-61.188.636-92-.91-4.766-1.717-14.743-1.793-22.17-.135-13.28-.22-13.625-5.045-20.668-6.188-9.03-8.993-16.281-14.374-37.162-2.362-9.166-6.05-19.966-8.194-24-2.901-5.457-24.003-31.256-32.58-39.834-.366-.365-.264 4.548.225 10.919.74 9.63.565 11.582-1.04 11.582-4.075 0-5.13-3.16-5.13-15.374 0-6.696-1.19-18.726-2.646-26.733-3.638-20.015-3.676-19.727 3.113-23.705 7.093-4.157 20.556-18.452 23.09-24.517 1.023-2.448 1.691-6.075 1.485-8.06-.295-2.847.19-3.61 2.292-3.61 2.033 0 2.766 1.027 3.084 4.322.629 6.52-6.845 19.341-18.466 31.677l-10.048 10.667 1.506 8.886c2.815 16.608 5.305 19.784 15.503 19.775 8.589-.008 13.064-3.602 23.064-18.529 16.923-25.257 31.35-36.104 54.123-40.691 8.908-1.795 11.819-1.81 24.667-.133 22.883 2.988 45.984 11.348 53.109 19.22 1.396 1.543 3.212 2.805 4.036 2.805 2.11 0 16.89-15.552 21.125-22.227 1.94-3.058 4.75-5.949 6.246-6.423 1.495-.475 2.718-1.376 2.718-2.002 0-1.573-9.725-9.759-14.272-12.014-2.05-1.017-9.18-5.033-15.844-8.925-10.089-5.891-13.213-7.083-18.667-7.122-3.603-.026-10.45-.905-15.217-1.954-4.767-1.048-11.846-1.927-15.73-1.953-5.887-.039-7.608-.633-10.323-3.562-3.241-3.498-3.323-3.51-16.27-2.456-25.131 2.047-31.583 1.492-47.677-4.099l-14.667-5.095-32.667-.852c-20.019-.523-34.12-1.459-36.42-2.418-8.14-3.393-26.78-1.314-60.795 6.782-11.956 2.845-16.85 4.5-14.766 4.991 4.053.957 4.84 3.46 1.374 4.367-3.651.954-17.733-.105-26.535-1.997-6.33-1.36-7.287-1.276-8.415.74-1.94 3.467-3.258 1.736-6.297-8.268-7.167-23.598-19.135-39.137-36.622-47.55l-10.157-4.887-9.699 1.978c-5.334 1.088-11.791 2.859-14.35 3.936-7.714 3.248-21.121 15.671-27.982 25.93-12.151 18.166-11.99 30.249.822 61.534 4.103 10.017 8.333 19.906 9.401 21.975 2.755 5.338 17.55 25.34 19.586 26.479.935.523 4.96-.576 8.945-2.443 6.03-2.826 10.259-3.586 25.244-4.534 18.798-1.19 22.12-1.857 32-6.43 5.79-2.678 16.185-3.703 20.557-2.025 1.16.445 2.11 2.315 2.11 4.156 0 2.861-.435 3.209-3 2.399-6.3-1.988-9.799-2.177-13.585-.734l-3.917 1.494 4.303 2.617c2.366 1.439 5.51 4.662 6.984 7.162 5.107 8.656 10.893 10.437 26.333 8.105 7.978-1.204 8.466-1.861 8.71-11.724.128-5.213.671-6.95 2.171-6.95 1.643 0 2.004 2.379 2.02 13.332.018 11.604.474 14.285 3.513 20.667 4.577 9.613 22.571 31.852 28.857 35.666 2.719 1.65 10.81 4.877 17.982 7.172 13.918 4.453 19.893 8.963 16.805 12.684-2.17 2.614-3.78 2.25-6.748-1.522-1.442-1.833-3.088-3.333-3.656-3.333-1.23 0 12.01 38.868 16.768 49.227 3.459 7.53 10.712 17.413 21.117 28.773l6.106 6.666-.24-9.333c-.325-12.698-.14-14 1.987-14 2.418 0 3.314 3.593 4.34 17.415 1.042 14.05-.42 17.938-6.307 16.76l-3.877-.775.023 9.633c.032 13.24 2.565 24.055 10.381 44.332 7.61 19.738 11.63 37.021 12.865 55.302.713 10.544.393 14.342-1.912 22.666-1.522 5.5-3.138 12.011-3.592 14.469-.453 2.458-5.534 13.705-11.29 24.995l-10.467 20.527 1.333 9.398c2.038 14.371 7.046 22.285 12.863 20.326 1.004-.338-.269-4.682-3.667-12.516-2.862-6.6-5.204-12.802-5.204-13.784 0-.982 1.158-3.202 2.572-4.934 3.513-4.298 6.018-1.99 3.907 3.602-1.323 3.505-1.028 4.749 2.52 10.61 2.21 3.653 4.749 8.933 5.643 11.734 1.737 5.438 3.444 6.712 8.06 6.012 2.83-.428 2.785-.655-1.902-9.628-5.235-10.023-6.012-15.928-2.593-19.706 3.56-3.934 4.688-2.867 3.728 3.53-.787 5.252-.397 6.72 3.252 12.229 2.28 3.443 4.147 7.623 4.147 9.29 0 3.514 4.576 7.18 8.963 7.18 1.67 0 3.037-.272 3.037-.604zm-6.424-282.63c-2.433-4.705-7.383-12.243-11-16.75-5.339-6.652-6.575-9.165-6.575-13.362 0-3.83.767-5.707 2.963-7.245 5.348-3.746 14.298-1.953 12.582 2.52-.66 1.719-1.865 2.007-5.528 1.32-3.716-.698-4.684-.453-4.684 1.182 0 4.127 2.55 8.56 9.004 15.656 3.625 3.986 7.282 8.557 8.126 10.158 1.698 3.22 2.12 15.091.537 15.083-.55-.003-2.991-3.855-5.425-8.561zm-116.242-123.49c0-10.96 28.601-29.25 34.544-22.09 3.395 4.09.887 6.031-6.802 5.265-9.389-.937-14.93 2.709-20.152 13.258-4.183 8.451-7.59 10.052-7.59 3.567zm-110.667.806c0-.424 3.677-5.116 8.171-10.426 8.28-9.786 14.46-20.753 14.483-25.708.007-1.495-1.187-5.071-2.654-7.948-3.227-6.33-3.214-6-.247-6 3.08 0 6.878 7.789 7.753 15.902.608 5.628.215 6.65-5.09 13.273a3794.3 3794.3 0 0 0-11.154 14c-2.973 3.754-6.722 7.016-8.333 7.25-1.61.235-2.929.08-2.929-.343zm148.52-2.86c-2.261-9.01 5.237-31.88 11.562-35.266 3.785-2.026 3.365.761-1.742 11.56-3.639 7.697-4.302 10.58-4.175 18.15.133 7.922-.144 9-2.315 9-1.54 0-2.79-1.294-3.33-3.444zm-65.049-12.614c-2.542-2.232-6.852-7.482-9.577-11.666-7.944-12.2-11.181-15.164-15.518-14.212-2.754.605-3.933.238-4.571-1.425-1.067-2.781 1.581-4.591 6.76-4.618 4.373-.023 9.675 5.142 20.473 19.942 4.687 6.424 7.488 8.98 10.962 10 9.532 2.8 10.23 6.037 1.301 6.037-3.902 0-6.367-1.017-9.83-4.058zm132.53-53.24c0-1.744-1.529-3.695-3.992-5.097-4.612-2.624-5.271-5.605-1.24-5.605 3.588 0 10.894 7.307 10.315 10.314-.679 3.524-5.084 3.86-5.084.389zm-103.334-4.035c-2.282-3.692 7.541-8.514 21.874-10.738 11.343-1.76 19.168-.803 18.542 2.268-.332 1.633-2.84 2.095-12.447 2.293-10.217.211-13.079.796-18.976 3.88-7.863 4.11-7.87 4.113-8.993 2.297zm216.697 468.805 2.03-8.515-9.363-2.28c-18.849-4.592-55.83-12.676-57.9-12.657-1.924.017-10.298 12.925-9.138 14.084.267.267 13.353 3.493 29.08 7.168 15.727 3.675 31.594 7.539 35.26 8.586 3.667 1.047 6.967 1.955 7.334 2.016.367.062 1.58-3.719 2.697-8.402zm-185.466-22.923c4.48-3.77 5.228-5.882 2.083-5.882-2.794 0-7.305-7.824-7.302-12.667.001-2.2.605-6.168 1.341-8.819 2.477-8.915 12.025-15.804 9.84-7.099-.448 1.789-.3 3.266.33 3.284.629.017 3.394.554 6.144 1.193l5 1.16v-5.939c0-5.292-.721-6.701-6.617-12.935-13.482-14.256-14.549-22.264-7.451-55.95l4.599-21.826-2.548-5.2c-2.71-5.533-11.65-41.997-12.916-52.678-1.085-9.162 1.31-16.835 9.052-28.996l6.8-10.685.033-19.088c.031-17.563-.246-19.78-3.47-27.755-5.882-14.548-10.007-19.624-19.628-24.155-4.687-2.206-10.694-6.12-13.35-8.699l-4.83-4.687-.927 3.77c-1.403 5.704-4.503 9.771-7.445 9.771-3.112 0-3.378-2.697-.765-7.75 3.804-7.357 3.124-12.536-2.854-21.722-3.052-4.69-6.787-11.33-8.3-14.757l-2.75-6.229-8.983-.827c-23.73-2.186-21.819-1.399-31.87-13.125-5.302-6.186-8.447-6.47-8.447-.76 0 3.624-.27 3.94-2.084 2.434-1.832-1.52-1.977-1.259-1.201 2.17 2.955 13.058 9.386 26.3 15.731 32.394 2.684 2.578 4.37 5.3 3.955 6.383-1.117 2.91 3.391 6.976 13.236 11.938 4.934 2.487 9.95 6.016 11.147 7.843 2.756 4.207 1.543 7.912-2.265 6.916-2.339-.611-2.656-.263-1.987 2.182.438 1.6 2.648 10.374 4.911 19.497 5.35 21.561 7.764 26.406 19.315 38.758 5.284 5.65 10.04 11.634 10.567 13.297l.96 3.023 3.245-3.499c3.107-3.351 7.137-4.708 7.137-2.403 0 .603-1.8 4.42-4 8.48-2.2 4.062-4.608 10.597-5.353 14.524-1.47 7.75-2.893 10.062-5.285 8.584-.975-.602-1.433-4.436-1.253-10.484.252-8.428-1.723-17.591-4.36-20.228-.997-.997-3.717 17.303-4.66 31.361-.672 10.015-.087 14.514 5.026 38.667 5.272 24.904 5.79 29.052 5.836 46.666.056 22.033-.427 24.007-12.187 49.868-10.44 22.957-10.905 25.268-7.043 34.914 3.474 8.676 5.01 11.218 6.775 11.218 2.052 0 1.2-4.552-1.496-8-2.756-3.522-3.404-8.771-1.462-11.837 1.571-2.482 4.036-.764 3.245 2.262-.349 1.332.908 5.321 2.791 8.864 1.884 3.543 3.426 7.186 3.426 8.095 0 1.596 8.971 4.09 10.22 2.84.338-.337-1.802-3.807-4.756-7.709-4.147-5.48-5.187-7.863-4.566-10.471 1.843-7.751 6.19-9.152 4.984-1.607-.68 4.256-.247 5.751 2.608 9 3.34 3.8 3.426 3.82 3.467.83.052-3.764 3.072-9.807 6.18-12.364 2.125-1.748 2.243-1.578 1.453 2.097-.473 2.2-1.226 5.28-1.673 6.845-.628 2.197.276 3.675 3.968 6.492 2.63 2.005 4.781 4.702 4.781 5.992 0 2.699 2.174 4.766 6 5.707 4.898 1.204 5.773.984 9.898-2.487zm-21.231-220.577c0-.75 1.47-3.6 3.269-6.333 6.83-10.39 8.07-28.095 3.37-48.119-1.564-6.66-2.438-12.766-1.942-13.568 1.72-2.785 5.639 2.726 8.694 12.23 2.731 8.493 2.929 10.947 2.138 26.572-1.175 23.208-4.254 30.58-12.775 30.58-1.515 0-2.754-.613-2.754-1.362zm.705 220.09c-.432-.699-2.637-2.589-4.899-4.2l-4.113-2.928 1 3.2c.55 1.76 1.669 3.64 2.487 4.18 2.172 1.43 6.445 1.236 5.525-.251zm170.84-12.067c2.264-15.308 2.205-37.584-.134-49.808-1.057-5.526-4.459-18.629-7.558-29.117-4.817-16.299-5.65-20.91-5.73-31.736-.131-17.444 3.233-24.748 16.053-34.855 5.037-3.971 10.657-8.17 12.49-9.33 1.834-1.16 8.68-6.993 15.214-12.962 6.534-5.97 12.347-10.853 12.917-10.853.571 0 6.25-6.15 12.62-13.667 6.37-7.517 16.65-18.919 22.846-25.339l11.266-11.672-5.765-2.653c-3.17-1.46-8.734-4.846-12.364-7.527-3.63-2.68-6.8-4.277-7.042-3.549-1.135 3.404-14.174 21.962-20.563 29.264-14.804 16.923-19.21 22.351-21.919 27.01-1.535 2.64-3.701 4.809-4.814 4.82-1.113.01-6.34 5.257-11.616 11.659-9.087 11.025-12.774 14.32-16.025 14.32-3.207 0-.789-3.947 9.392-15.333 5.902-6.6 12.598-14.7 14.881-18 2.283-3.3 4.64-6.201 5.239-6.448.598-.246 3.89-4.146 7.315-8.666 3.424-4.52 9.085-11.296 12.578-15.057 7.108-7.653 19.174-25.607 17.998-26.783-2.599-2.599-17.846-7.253-27.343-8.347-10.746-1.237-16.442-3.775-15.761-7.02.352-1.682-11.715-6.104-17.032-6.242-5.797-.15-18.915 14.32-26.77 29.529l-6.032 11.678 2.057 6.058c1.315 3.874 2.065 10.969 2.08 19.678.013 7.491.954 17.82 2.091 22.953 1.138 5.134 2.535 18.034 3.106 28.667.898 16.718.622 22.31-2.036 41.333-4.473 32.015-7.136 56-8.067 72.667-.748 13.373-.573 15.072 1.977 19.263 1.681 2.763 3.145 8.14 3.672 13.486l.876 8.89 12.18 2.726c6.698 1.498 13.048 2.627 14.112 2.508 1.37-.154 2.423-3.524 3.61-11.545zm-109.043 2.463c1.572-3.782 2.686-7.047 2.477-7.256-.713-.713-41.644-9.623-42.112-9.167-.257.25-.467 2.614-.467 5.254 0 8.599 2.291 10.31 19.089 14.255 8.348 1.96 15.848 3.615 16.667 3.677.818.062 2.774-2.981 4.346-6.763zm13.316-28.954c3.747-8.731 7.5-19.078 8.34-22.993 3.212-14.979-1.932-47.3-11.438-71.863-6.818-17.618-8.669-26.674-9.974-48.8l-1.134-19.215-4.63-5.126c-2.547-2.82-6.872-8.962-9.61-13.65-2.738-4.688-5.103-8.66-5.256-8.827-.515-.56-13.7 20.237-17.099 26.97-1.85 3.667-3.782 10.299-4.292 14.738-.78 6.804-.38 9.63 2.55 18 1.912 5.461 4.328 15.579 5.369 22.484 1.83 12.145 2.091 12.756 8.009 18.764l6.116 6.21-.319 25.902c-.307 24.898-.147 26.711 4.116 46.76 2.439 11.473 4.873 21.568 5.409 22.435.954 1.544 14.549 5.325 16.194 4.504.46-.23 3.901-7.561 7.649-16.293zm-22.485-82.289c0-2.006 1.585-6.35 3.521-9.655 3.204-5.467 3.676-5.795 5.247-3.647 1.427 1.952 1.367 3.202-.35 7.224-3.459 8.108-3.954 8.847-6.227 9.295-1.603.315-2.19-.548-2.19-3.217zm-93.167 88.026 2.266-5.97-4.216-1.756c-2.319-.966-14.416-4-26.883-6.742-12.466-2.741-29.866-6.676-38.666-8.744-8.8-2.068-19.7-4.145-24.22-4.615-7.33-.761-8.43-.556-10.144 1.892-1.058 1.51-1.64 4.23-1.293 6.043.488 2.556 1.871 3.617 6.144 4.716 3.032.78 7.613 2.085 10.18 2.9 7.852 2.492 83.291 19.383 83.95 18.796.339-.302 1.636-3.236 2.882-6.52zm77.268-31.177c-.789-5.082-1.434-13.988-1.434-19.79 0-12.543-1.37-26.94-2.564-26.94-.468 0-2.568 8.037-4.666 17.86-4.977 23.302-4.512 28.247 3.414 36.34 6.802 6.945 7.363 6.147 5.25-7.47zm-.1-173.476c0-1.423-.6-2.588-1.334-2.588-.733 0-1.333 1.536-1.333 3.413 0 1.935.577 3.055 1.333 2.587.733-.453 1.333-1.988 1.333-3.412zm109.947-43.458c-6.63-4.847-27.775-9.745-30.466-7.055-.857.856 6.077 27.98 8.673 33.925 5.113 11.709 4.667 11.932 14.923-7.451 8.8-16.634 9.186-17.725 6.87-19.419zm128.886 15.17c23.506-40.768 30-69.5 21.675-95.897-3.373-10.697-9.23-23.544-16.174-35.476l-3.34-5.74-3.294 3.074c-1.811 1.69-4.384 5.173-5.717 7.74-1.334 2.566-4.932 7.066-7.996 10-9.895 9.471-10.049 14.424-.618 19.95 9.814 5.752 10.965 10.844 4.669 20.656-4.497 7.008-8.039 16.214-8.039 20.894 0 2.68.667 3.17 4.334 3.186 8.053.036 15.224 5.966 9.14 7.557-1.848.483-2.807 1.803-2.807 3.863 0 6.956-11.526 30.152-13.442 27.052-.594-.962-1.325-1.465-1.624-1.12-1.954 2.255-10.267 16.246-10.267 17.279 0 2.703 17.599 13.996 22.666 14.544.367.04 5.242-7.863 10.834-17.561zm-35.616-8.633c3.207-4.95 8.273-11.254 11.258-14.008 3.795-3.503 6.042-7.082 7.475-11.909 2.652-8.93 2.631-9.083-1.205-9.083-4.575 0-5.22-1.735-5.091-13.697.104-9.67.51-11.183 4.896-18.29 6.549-10.61 6.188-13.181-2.129-15.166-1.968-.47-4.859-2.652-6.424-4.85-1.565-2.198-3.458-3.997-4.206-3.997-.748 0-6.257 3.95-12.242 8.777-5.986 4.828-17.483 13.168-25.55 18.535-8.066 5.367-17.066 11.695-20 14.063-2.933 2.368-8.933 6.027-13.333 8.13-4.4 2.105-7.25 3.827-6.333 3.827 2.89.001 1.835 4.034-3.667 14.001-2.933 5.314-5.333 10.265-5.333 11 0 .795 2.397 1.07 5.895.675 8.006-.902 24.19 3.957 25.128 7.544.784 2.998 8.2 5.43 16.594 5.44 3.09.005 8.79 1.28 12.667 2.835 7.243 2.904 12.933 4.857 14.743 5.059.564.063 3.65-3.936 6.857-8.886zm-56.96-27.853c-1.39-1.39.371-3.147 3.154-3.147 1.424 0 2.588.9 2.588 2 0 1.978-4.093 2.796-5.741 1.147zm-11.033-5.99c-1.098-1.776-1.156-1.735 9.14-6.355l8.969-4.024v3.244c0 2.201-1.178 3.836-3.667 5.09-4.955 2.494-13.424 3.693-14.442 2.045zm-19.079 13.579 3.48-6.576-4.146-3.881c-2.924-2.738-4.971-3.645-6.946-3.08-2.76.79-16.534 12.457-16.534 14.005 0 .438 1.35.829 3 .869 1.65.04 5.7 1.177 9 2.528 3.3 1.35 6.6 2.513 7.334 2.583.733.07 2.899-2.832 4.812-6.448zm-32.011-4.254c2.492-.835 5.961-2.785 7.708-4.333 3.844-3.408 8.088-12.222 8.128-16.882.03-3.413 2.176-6.6 4.444-6.6.669 0 .859 1.95.422 4.333-1.182 6.46.341 7.961 6.593 6.496 3.162-.742 4.048-1.281 2.237-1.362-3.605-.16-4.117-4.134-.532-4.134 6.361 0 10.752-2.925 13.67-9.107 3.167-6.71 6.266-10.893 8.069-10.893 2.032 0 1.033 4.542-2.618 11.9-2.488 5.014-5.014 7.978-8.235 9.666-4.247 2.225-4.361 2.432-1.333 2.405 5.166-.046 13.915-4.576 20.423-10.575 3.265-3.01 11.25-8.808 17.746-12.885 12.63-7.928 34.431-24.04 38.272-28.285 2.247-2.483 2.134-2.745-3.116-7.24-2.997-2.564-7.975-5.572-11.064-6.684-11.492-4.137-24.57-7.503-34.145-8.788-5.424-.728-10.298-2.03-10.832-2.893-1.56-2.525-28.345 4.59-35.305 9.379-8.317 5.723-20.96 20.08-25.987 29.512-8.192 15.369-16.877 22.488-27.435 22.488h-4.842l7.075 8.333c3.891 4.584 7.295 8.629 7.565 8.99.27.36 1.116-.462 1.88-1.827.763-1.364 6.422-4.84 12.573-7.723 9.475-4.44 11.593-6.04 13.85-10.463 3.134-6.144 6.548-8.291 12.28-7.723 5.55.55 6.626 3.746 1.261 3.746-6.331 0-8.13 1.245-11.547 7.988-3.122 6.16-7.887 9.56-17.638 12.584-1.631.506-4.142 2.572-5.58 4.59l-2.614 3.672 4.82 6.916c5.08 7.288 6.504 7.845 13.807 5.4zm25.914-42.402c-.426-.69.563-2.5 2.198-4.023 5.877-5.476 21.268-7.169 22.164-2.439.366 1.932-.562 2.242-5.989 2.005-4.833-.212-7.462.46-10.628 2.715-4.56 3.248-6.539 3.693-7.745 1.742zm-24.715-8.12c0-.756 2.157-3.27 4.795-5.585 6.06-5.32 7.923-9.875 5.721-13.988-1.893-3.539-1.174-4.811 2.026-3.583 1.242.476 2.603 2.59 3.025 4.698.421 2.107 1.21 3.831 1.753 3.831 2.62 0 7.99-5.908 9.41-10.354 2.338-7.315 3.936-8.31 3.936-2.447 0 9.845-6.674 18.135-14.6 18.135-1.503 0-2.733.554-2.733 1.23 0 2.848-7.065 9.436-10.119 9.436-1.768 0-3.214-.618-3.214-1.374zm42 38.707c.453-.734.224-1.334-.51-1.334-.733 0-1.704.6-2.157 1.334-.453.733-.224 1.333.51 1.333.733 0 1.703-.6 2.157-1.333zm-334.667 361.25c-23.222-3.946-39.04-16.834-51.442-41.917-9.69-19.596-12.177-30.5-12.386-54.298l-.172-19.63-19.333-4.56c-10.634-2.506-24.134-5.631-30-6.943-5.867-1.313-11.417-2.95-12.334-3.64-3.97-2.99-.441-17.202 4.675-18.826 1.303-.413 15.56 2.175 31.68 5.753 26.229 5.821 29.412 6.276 30.265 4.325.524-1.2 2.808-7.106 5.075-13.126 10.467-27.784 32.637-51.182 55.972-59.072 7.517-2.541 10.701-2.849 24-2.32 11.671.463 17.056 1.308 22.547 3.537 17.404 7.068 30.406 20.233 40.297 40.8 7.048 14.659 10.574 29.122 11.455 47 .656 13.312.494 15-1.446 15-1.257 0-2.186-1.074-2.186-2.525 0-9.579-3.349-31.508-6.2-40.605-12.085-38.556-34.747-58.203-67.134-58.203-24.533 0-44.22 11.793-61.42 36.793-19.196 27.9-26.34 74.34-16.582 107.808 11.067 37.961 33.923 59.502 63.336 59.692 26.916.173 57.12-23.434 74.153-57.96 3.613-7.322 5.816-10.333 7.562-10.333 2.998 0 2.421 2.372-3.405 14-19.761 39.437-56.458 64.436-86.977 59.25zm-61.46-126.762c.485-3.03.68-5.713.433-5.96-.678-.677-55.048-12.528-57.479-12.528-1.16 0-2.474 1.452-2.92 3.228-1.887 7.518-1.626 7.657 26.774 14.316 14.659 3.437 27.925 6.295 29.482 6.352 2.31.085 2.99-.907 3.71-5.408zm53.15 105.703c-10.532-10.22-22.16-31.316-26.561-48.191-3.05-11.692-2.99-38.238.12-52.667 4.506-20.914 14.264-40.592 26.692-53.831 11.803-12.574 35.392-26.643 35.392-21.108 0 1.048-3.75 3.769-8.333 6.045-24.28 12.058-40.209 33.483-48.623 65.402-4.316 16.374-4.935 42.682-1.31 55.724 4.956 17.837 15.6 36.64 26.122 46.146 3.013 2.722 5.478 5.55 5.478 6.285 0 2.79-3.873 1.149-8.977-3.805z"/></svg>