<svg xmlns="http://www.w3.org/2000/svg" width="992.5" height="1200" viewBox="0 0 794 960"><path d="M433 45.4c-7.8 1.7-13.1 4.8-18 10.3-11 12.3-13.6 29.9-7.4 49.1 1.6 4.9 1.6 5.4-.6 14.4-3.7 14.9-9.9 25.2-19.7 32.6-5.6 4.1-17.4 8.5-32.8 12.2-8.1 1.9-20.4 8.8-26.6 15-7.1 7-11.6 17.3-13 29.6-1.3 11.9-3.8 20.3-9.5 31.9l-4.9 9.9-.2 22.9c-.1 13.6-.6 23.4-1.2 24.1-3.4 4.1-5.1 10.4-5.1 19.3 0 6.5-.7 12.1-2.4 18.5-1.3 5.1-2.9 14.3-3.6 20.4-1.2 11.9-1.1 13.7 4.5 50.9 2.3 15.1 2.4 18 1.5 26-.6 4.9-1.6 10.3-2.2 12-.6 1.6-1.9 5.4-3 8.4s-2 8.3-2 12l-.2 6.7-39.4 4.8c-21.7 2.6-39.5 4.6-39.7 4.4-.1-.2-1.4-4.4-2.8-9.4-3.5-12.3-9.3-25.6-15-34.2-6.3-9.4-18.1-20.3-26.5-24.4-6.1-3-7.4-3.3-16.2-3.3-8.8 0-10.1.3-16.2 3.3C110.1 423 95 455.5 95 490c0 8.3-.1 8.8-2.3 9.3-1.2.3-13.6 2-27.6 3.8-24.1 3.2-25.4 3.5-26.2 5.7-1.7 4.3-1 9.9 1.4 12.6l2.2 2.4L69 520c14.6-2.1 26.6-3.8 26.7-3.7 0 .1.8 4.3 1.7 9.3 4.4 25.4 16.1 49.1 31.4 63.6 12.1 11.4 25.6 15.7 38.9 12.4 8.9-2.2 15.8-6.9 22.7-15.4 14.6-18 20.8-39.7 20.5-71.2l-.2-17.5 30.4-3.7c16.7-2 31.4-3.7 32.5-3.7 1.5-.1 2.4.7 2.8 2.3.9 3.8 6.3 7.1 11.3 7 2.3 0 5.2-.7 6.3-1.5 1.7-1.1 4.5-1.3 14.1-.7 7.1.5 12.7.4 13.7-.1 1.1-.6 3.3-.5 5.9.2 8.1 2.1 14.5-2.5 16-11.6.5-3.5 2.6-5.8 3.9-4.4.3.3-1 10.8-3 23.3-1.9 12.6-3.7 25.5-4.1 28.6l-.6 5.7 4.1 2.3c2.2 1.3 4.2 3.2 4.4 4.3 2.3 12.4 5.6 25.1 9.9 38.2l5.2 15.8-.3 20.5c-.4 26.3-2.7 38.9-11.8 65.9l-6.6 19.4.5 12.6c.4 11.3 1 14.2 5.2 28.6 6.8 23.1 11.2 40.9 14 57.5 2.7 15.8 3 20.2 1.5 22.9-.5 1-1.4 4.3-1.9 7.2-.5 3-1.5 7.5-2.2 10-1.5 5.9 0 9.3 8.3 18.6 5.9 6.6 10.4 14.8 14.3 25.9 3.7 10.6 11.7 18.5 20.5 20.3 2.5.5 7.4 2.2 11 3.7 7 3.1 12.1 3.4 25.5 1.7 7.7-1 15.7-4.7 21.6-9.9 2-1.7 5.3-3.7 7.3-4.4 4.4-1.4 6-4 5-8.3-1-4.5-3-7.3-9.2-12.3-3-2.5-6.7-6.2-8.2-8.3-1.5-2-5-5.4-7.8-7.5-3-2.2-6.7-6.3-9.1-10-3.8-6.1-16.7-22.8-24.2-31.4-2-2.3-4.1-6.1-4.7-8.5-2.4-9.7-3.5-27.2-2.9-46.5.6-20.8 1.3-24.7 7.1-44.3 5.2-17.6 6.6-28 6.5-47-.2-14.4.1-17 1.8-21.4 1.2-2.8 3.5-10.1 5.3-16.4 2.8-9.9 3.2-12.4 2.7-18.7-.4-4-1.2-9.2-1.9-11.7-.9-3.7-.8-8.2.6-24.4 1-10.9 2-20.5 2.3-21.3.5-1.4 7.7 21.4 10.9 34.5.9 3.3 1.7 12.9 2 21.3.3 8.5 1.1 18.9 1.8 23.2 1.3 7.2 1.2 8.6-.5 16.4-1 4.7-3.1 12.5-4.5 17.3-1.7 6-2.6 11.2-2.6 16.3 0 7.9 4 31.3 7.1 41.5 1 3.3 3.3 13 5.1 21.5 2.8 13.6 3.1 16.9 2.7 26.5-.5 11.7-2.4 18.3-9.6 33.5-3.9 8.1-4 12.8-.5 17 3.8 4.4 8.8 6.7 19.3 8.5 5 .9 10.4 2 11.9 2.6 4.8 1.8 16.4 9.1 26 16.2l9.2 7 10.2.9c5.6.4 11.8 1.3 13.8 1.8 7.8 2.2 15.9.1 20.9-5.4 1.4-1.4 4.2-3.1 6.2-3.6 10.1-2.7 10.2-19 .1-21.5-3.7-.9-17.9-7.5-23.7-10.9-5.8-3.5-23.2-17.3-23.8-19-.3-.7-3.5-5.1-7.1-9.9-3.7-4.8-7.4-10.6-8.2-12.8-2.7-7.9-1.5-29.7 3.3-58.9 2.5-14.9 2.8-18.8 2.7-41 0-13.5-.5-26.7-1.1-29.3-.9-3.9-.7-6.4.8-13.3 1.1-4.7 2.7-10 3.5-11.6 2.4-4.6 1.6-21.9-1.2-27.3-3.5-6.8-3.6-8.7-.4-23.5 3.4-16.2 7-42.6 7-51.6 0-4 .5-6.6 1.4-7.3 1.1-1 .6-4.3-3.5-20.4-2.7-10.5-4.9-19.7-4.9-20.3 0-.7.8-1 1.8-.7 1 .2 2.5-.4 3.5-1.5 1.5-1.6 2.3-1.7 6.5-.9 5.8 1.2 9.1.5 12.9-2.7 1.5-1.3 4.3-2.7 6.1-3.1 4.1-.9 5.2-3 5.9-11.6.3-3.8.6-6.9.7-6.9.1-.1 13.8-2.1 30.6-4.5 32.4-4.7 32-4.7 32 .6 0 3.7 4.5 21.2 7.2 27.9 8.1 20.6 20.2 36.9 32.8 44.3 13.5 7.9 30.1 7.1 41.5-2 10-7.9 20.4-25.9 24.4-42.3 2.9-12 4.4-27.8 3.6-39.5l-.7-10 17.7-2.4c17.3-2.3 17.6-2.4 19-5.2 2.1-4 1.8-7.4-.9-10.6l-2.4-2.7-16.8 2.3c-9.3 1.3-17.3 2.5-17.9 2.8-.7.2-2-2.9-3.3-7.6-3.1-11.7-7.5-22.5-12.8-31.6-5.9-10-18.9-23.1-26.6-26.9-14.2-7-30.1-4.8-41.4 5.6-15.2 14-25.4 42-25.4 69.9v6.6l-29.7 4.1c-16.4 2.3-30 3.8-30.4 3.4-.3-.4-1.2-5-2-10.2-1.4-9.4-1.5-18.7-.4-26.5 2.4-17.6 3.7-30.6 3.8-40 .2-12.4-.4-15.1-8.4-35.8-6.3-16.3-7-23.2-4-39.6 2.5-13.8 2.6-23.7.5-37.8-1.6-9.9-1.6-11.1.1-20.2 1.6-8.9 1.6-10.1.2-14.7-6-19.1-10.3-26.6-17.5-30.3-3.9-2-31.6-11.7-41.3-14.5-3.1-.9-7.2-2.7-9-3.9-3.6-2.5-4-4.3-2.4-12.3l.6-3.4h8.5c12.1 0 17.2-1.5 18.9-5.4 4.3-10.4 7.1-45.8 4.5-58.9-2.6-13.4-11.6-25.5-23.7-31.5-11-5.6-28.6-7.6-41.3-4.8m27.6 5c7.9 2.1 17.8 7.2 22.2 11.5 8.4 8.2 11.2 18 11.2 39.8 0 15.2-2.4 32.7-5 35.8-1.7 2-9.2 3.5-17.9 3.5-7.4 0-8.5-.3-16.1-4.2-4.5-2.3-10-5.8-12.2-7.8-3.6-3.1-4.2-4.3-4.9-9.4-1.2-9-3-9.2-3.6-.3-.3 3.7.1 6.2 1.4 8.7 2.3 4.5 11.4 11.5 18.9 14.5l5.9 2.4-.3 4.3c-.9 13.7-.7 16.6 1.2 18.7 3.3 3.7 5.9 2.3 3.6-1.9-.8-1.5-.1-1.4 4.8 1 3.1 1.6 8.6 3.6 12.1 4.5 3.6.9 8.1 2.5 10 3.6 2 1 7.3 2.8 11.8 4 12.2 3.1 17.8 7.3 22.7 17.3 4.3 8.5 4.4 9.9 3.7 35.1-.1 4.4.5 15 1.3 23.6 1.5 14.2 1.5 16.4 0 24-.9 4.6-1.8 12.2-2.1 16.9-.4 7.6-.1 9.8 3.2 21.4 8.1 28.7 9 33.6 8.8 51.1 0 8.8-.8 22.1-1.6 29.5-1.4 12-1.4 14.8-.2 25 .8 6.3 1.5 18.8 1.5 27.6 0 17.8-.4 18.9-5.7 17.8-2.6-.5-3.4-.1-5.2 2.5-2.2 3.1-5 3.9-8.5 2.5-1.4-.5-1.1-1.3 1.4-4.7 3-4.1 3.7-7.1 2.1-9.6-1.5-2.3-3.1-.2-3.1 3.9 0 3.8-.3 4.2-7 8.6-3.9 2.6-7.4 4.3-7.8 4-1.1-1.2-2.1-14.8-1.5-21.3.5-5.1.2-6.8-1.5-9.6-1.1-1.9-2.3-5.3-2.7-7.5-.6-4-.5-4.3 6.6-12.4 9.3-10.8 10.5-12.6 9.1-14-.8-.8-1.5-.8-2.5.1-1.2 1-1.6.2-2.1-4.6-1.2-9.5-5.6-28.1-8.7-36.5-3-8.3-4.6-17.5-3.5-20.4.8-2.2 6.6 8.5 10.5 19.5 2.7 7.6 4.4 9.1 4.9 4.5.6-4.6-1.7-10.8-6.4-17-6.6-8.8-7.7-14.5-4.9-25.5 1-3.9 3.3-8.3 6.6-12.8 7.8-10.8 9-15.3 10.1-38.1.6-13.7 1.3-20.5 2.4-22.7 6.8-14.7 5.6-30.7-3.6-47-6.2-11-14.6-20.1-16.6-18-.8.8 1.4 4.2 9.3 14.5 11.4 15.1 13.8 23.5 10.9 37.7-1.8 8.7-4.4 14.5-8.2 18.6-1.3 1.4-2.1 2.8-1.7 3.2 1.1 1.2 4.1.8 4.6-.6 1-2.4.7 4.1-.3 7-.8 2.3-2 3.1-5.5 4.1-3.8 1-4.5 1.6-4.5 3.7 0 3 2.5 3.4 3.3.5.3-1.3 1.4-2 3-2 7.4 0 2.1 25.5-8.3 39.5-5.4 7.2-5.7 8-7.5 20.1-.9 6-2.7 15.8-4 21.9-2.2 10.2-2.6 11.2-6.1 14.3-10.3 8.9-20.5 11.5-44.9 11.6-9.2.1-19.2-.5-23.5-1.2-8.1-1.5-23.2-8.2-33.2-14.8-5.3-3.5-5.6-3.9-5-6.8 1.3-5.8.6-26-1.2-35.8-1.5-8-2.8-11.6-7.1-19.5-3-5.4-6.1-12.4-7-15.5-1.6-5.7-1.6-5.7 1.9-19.6 1.9-7.6 3.8-16.6 4.2-20l.7-6.2 3.5 3.6c6.9 7.1 20.3 13.9 33.2 16.9 10.1 2.3 33.1 2 41.3-.5 8.2-2.5 15.5-8.8 19.3-16.6 2.5-5.2 2.6-6 2.1-16.7-.6-13.8-3.1-22.8-5.6-20.2-.6.6-.4 3.5.4 8 1.3 7 1.9 15.7 1.7 22.7-.3 7.3-12 16.4-24.8 19.4-9.7 2.3-29.4 1.5-38.4-1.6-19.9-6.7-33-16.6-33-25 0-1.1 2.9-5.8 6.5-10.5 5.9-7.8 9.5-15.5 9.5-20.6 0-3-1.9-3.1-3.1-.2-6.1 14.8-10.5 20.5-20.5 26.9-2.9 1.8-5.5 3.8-5.9 4.3-1.1 1.8 1.5 2.2 4.4.6 1.7-.8 3.3-1.5 3.7-1.5.4 0 .4 5.1.1 11.2-.6 12.5-3.1 22.7-9.1 36.3-3.2 7.3-12.6 20.5-14.7 20.5-.5 0-2.1-1.9-3.6-4.3-2.2-3.3-2.8-5.3-2.7-9.5.1-2.8-.2-5.2-.7-5.2-.5 0-1.8 1.5-3 3.2-2.8 4.5-1.9 8.9 2.7 14 8.3 9.3 10.6 19.5 8.5 39.3-1.6 14.9-3.5 22.5-8.6 35.2-6.2 15.7-6.9 20-6.9 41.8.1 20.7 0 20.2 7.8 41.8 2.9 8 3.6 11.3 3.5 17-.1 12-2.9 16.6-10.1 16.7-4.2 0-4.2.3-.6-15 1.4-6.3 1.5-7.2.2-7.7-1.7-.6-4.3 5.7-5.3 13.1-1.2 8.1-2.2 9.6-7.1 9.6h-3.7l.8-4.8c.4-2.6 1.4-6.6 2.3-9 1.7-4.8 1.2-7.2-1.5-7.2-1.3 0-1.8.7-1.8 2.7 0 4-2.4 15-3.6 16.1-1.3 1.3-10.4 2.2-11 1.1-.3-.4.8-2.9 2.5-5.5 1.6-2.6 3-5.9 3-7.2 0-3.2-1.7-6.2-3.6-6.2-1.3 0-1.4.8-.9 4 .5 3.2.2 4.9-2.2 9.1-4.4 8.2-11.3 11.1-16.4 7l-2.4-1.9 2.7-1.1c1.5-.5 3.4-2.3 4.2-3.8 1.9-3.7 3.6-13.3 3.6-20.2 0-9.6 4-20.9 8-23.1 1.8-1 1.9-1.3.6-3.1-1-1.5-1.2-2.9-.5-5.2 2-7 .5-26.1-3.8-47.2-2.3-11.5-2.5-14.4-2-26 .6-12.3 1.8-19 5.4-29.5 1.1-3.4 1.3-6.7.8-13.5-.7-10.1-.1-12.6 4.5-18.4l3.1-3.8-1-8.4c-2.7-23.4-2.4-29.7 2.3-40.7 7-16.6 7.1-16.7 8.8-16.4 1.5.3 1.7-.3 1.2-4-.7-5.6 3.7-28.2 6.9-35.1 1.3-2.9 4.9-8 8-11.3 10-10.8 23.6-16.2 43-17.1 8.9-.5 11.7-.9 11.7-1.9 0-.8-.7-1.4-1.5-1.4-2.7 0-.4-2.8 5.5-6.4 11.3-7 21.9-28.2 22-43.9 0-2.2-1-7-2.1-10.8-1.7-5.7-2.1-8.9-1.7-16.8.3-9 .6-10.2 3.8-15.5 6.4-10.6 10.3-13.5 22.3-16.6 8.6-2.2 18.3-2.5 25.3-.6m-91.7 259.1c5.6 11.3 7.5 16.3 8.6 22.7 2 11.7 1.1 22.7-2.5 29.8-1.5 3-3.5 7.9-4.4 10.9-.9 3-3.4 8.2-5.5 11.5-5.6 8.6-6.7 11.7-9.5 26.8-2.8 15.1-4.6 32.5-4.6 44.4v8.2l-3.7.5c-2.1.2-4.1.2-4.5 0-.4-.2-1.5-3-2.4-6.1-.8-3.1-2.7-9.5-4.2-14.2-2.5-7.9-2.6-9.7-2.5-24.4.2-18.4 1.1-23.4 6.5-37.1 9.6-24.5 12.7-46.1 9.3-64.9l-1.7-9.6 6.4-6.9c3.4-3.7 6.6-6.6 6.9-6.5.4.2 3.9 6.9 7.8 14.9m299.9 39.7c6.7 2.5 17.4 12.4 23.7 21.8 8.6 12.9 14.9 29.5 18.1 48 2.3 13 2.3 37.6 0 49.3-4.7 24.5-16.8 44.8-30.3 51-7.5 3.4-17.9 3-26.3-.9-8.6-4.1-15.8-10.7-22.6-21.1-9.2-13.7-15.6-30.8-18.8-50.4l-.6-3.6 19.2-2.7c17.6-2.4 19.5-2.9 21.6-5.2 2.7-3.1 2.8-5.9.2-10.2-2.4-3.9-2-3.9-24-.7-9.5 1.4-17.4 2.5-17.6 2.5-.8 0-.4-12.6.6-20.6 2-16 6.7-29.6 13.9-40.7 11.5-17.6 25.5-23 42.9-16.5M506.1 390c.6 2.5 1.7 9.2 2.5 14.9l1.4 10.4-4.1 5.4c-3.1 3.9-4.5 5.1-5.1 4.1-.5-.7-.8-6.3-.6-12.3.3-14.2-1.1-32.9-2.8-37.9-.9-2.4-1.1-5.4-.7-7.9.6-4.2.6-4.1 4.5 7.3 2.1 6.3 4.3 13.5 4.9 16m-125.2-16.5c6.9 5 22.5 12.2 31.7 14.6 15.1 4 45.5 3.6 62.3-.7 3.2-.9 8.6-3.6 12.8-6.4l7.3-5 .1 3.3c.1 1.7 0 3.9-.1 4.7-.6 4.4-12 14.5-19.2 17.1-2.1.7-3.8 1.9-3.8 2.6 0 3.6 12.5-.7 19.2-6.6 2-1.7 3.8-3.1 4.1-3.1.3 0 .6 5.6.6 12.5 0 6.8.2 12.9.6 13.5.3.5-.4 5.4-1.7 10.7-3.2 13.8-2.8 29.3.7 29.3 1.8 0 1.9-2.1.5-8.7-.6-2.8-.7-6.1-.2-7.8.8-2.7 1.1-2 3 6.5 1.1 5.2 2.7 13.8 3.6 19 2.4 15.3 6.6 38.1 8 43.7 1.4 5.2 1.4 5.3-1.5 9.3-5.5 7.5-13.5 11.3-28.9 13.6-10.1 1.4-22.8.7-30.9-1.7l-4.2-1.2.3-9.6.3-9.6 5-.7c2.8-.4 7.7-1 11-1.3 8.9-.9 10.5-1.4 10.5-3.2 0-1.4-1.2-1.5-10.2-1-5.7.3-11.2.9-12.3 1.2-1.7.6-1.6.3.5-1.5 1.4-1.1 4.8-3.5 7.5-5.3 4.1-2.6 5.7-4.6 8.8-10.6 3.5-7 4.9-14.1 2.7-14.1-.6 0-1.7 1.7-2.6 3.7-4.5 10.7-5.7 12.3-12.3 16.8-4.9 3.3-7.6 4.5-10.3 4.5-2 0-4 .5-4.3 1.1-.4.5-.7 10-.6 21v20l-3.4 1.5c-12 5-30.4 6.1-49 3-12.4-2.1-21.4-5.1-32.9-10.8l-7.8-3.9.6-6.2c.4-3.4 2.5-16.6 4.6-29.2 2.1-12.7 4.1-27.5 4.5-33 .9-15.4 4.4-46.7 6.4-58.7 1.8-10.5 3.8-15.2 9-21.8 1.5-1.8 2.4-2.2 3.4-1.5.8.5 3.6 2.7 6.3 4.7 7.2 5.5 23.8 13.5 32.8 15.8 9.7 2.5 27.1 2.8 30.2.6 1.8-1.4 1.8-1.5-.6-2-1.4-.3-7.4-1.2-13.4-2.1-22.3-3.4-33.9-7.6-46.3-16.9-7.7-5.7-8.2-6.3-8.3-9.9 0-2 .2-3.7.5-3.7s2.7 1.6 5.4 3.5m369.7 39c1.3 2 1.4 3.1.7 4.8-.9 2-2.6 2.5-17.7 4.6-9.2 1.3-16.8 2.2-17 2-.2-.2-.6-2.4-.8-4.9l-.3-4.4 15.5-2.2c8.5-1.2 16.1-2.2 16.7-2.3.7 0 2 1 2.9 2.4m-589.1 5c16.4 7.8 32.4 31.4 39.5 58.3 6.2 23.1 6.7 52.8 1.3 74.2-5.2 21-17.2 38.8-29.9 44.7-10.9 4.9-24.1 3-35.2-5.1-16.7-12.3-31.5-41.3-35.6-69.7l-.7-4.6 20.7-2.8 20.6-2.8 1.9-3.1c2.4-3.8 1.8-8.1-1.6-11.5l-2.4-2.4-18.8 2.6c-10.3 1.5-19.4 2.7-20 2.7-1.6 0-1.7-12.3-.3-22.5 2.7-18.8 10.7-38.3 19.8-48.5 4.9-5.5 12.8-10.6 18.6-12.1 5.6-1.5 16-.2 22.1 2.6m488.3 8.7c1.3 1.3 1.6 5.7.4 7.4-.4.5-10.8 2.5-23.2 4.2-37.1 5.4-79.1 11.2-80.1 11.2-.5 0-.9-2.2-.9-4.8v-4.8l33.8-4.7c18.5-2.6 41.1-5.8 50.2-7.1 9.1-1.3 17-2.4 17.6-2.5.5 0 1.5.4 2.2 1.1m-299.4 45c-.8 6.2-1.1 6.8-3.3 6.8-1.6 0-2-.8-2.3-5-.3-5.1.1-5.6 4.5-5.9 1.5-.1 1.6.5 1.1 4.1m-65 7c-1.6 7.7 1 6.9-33 10.9-17 2-33.4 4-36.5 4.4l-5.5.7-1.1-4.9c-.6-2.6-1.1-4.8-1-4.9.1 0 13-1.5 28.7-3.3 15.7-1.9 32.3-3.9 37-4.6 13-1.9 12.3-2 11.4 1.7M142 501.4c0 1.2-.4 2.7-.9 3.5-.7 1-14.1 3.3-47.4 8.1l-46.5 6.6-.4-5c-.2-2.8-.4-5.2-.3-5.3 0-.1 16.7-2.5 37-5.3 20.4-2.8 41.1-5.6 46-6.4 7.8-1.1 9.2-1 10.8.2.9.8 1.7 2.5 1.7 3.6m-97 11.2c1.2 3.1 1.2 4.5.1 6.3-1.5 2.3-4.1-.5-4.1-4.4 0-5.1 2.4-6.3 4-1.9m460.5 55.1c-2.9 14.2-5.1 18.9-16.3 33.8-5.7 7.6-6.8 11-3.4 10.3 1.6-.3 4.5-3.8 11.1-13.3l3.3-4.9 3.4 10c5.3 15.8 4.5 23.7-3.7 35.5-3.4 4.8-4.3 7-4.7 11.6-.5 6.4 1.3 7.1 3.3 1.2 1.2-3.4 1.2-3.3 1.8 3.6 2.5 28 1.7 49.6-2.8 73.4-2.2 11.8-2.5 16-2.5 35.6v22.3l4.1 5.3c2.3 3 6.5 8.6 9.4 12.5 7.8 10.4 20.9 21.5 32 27.1 9.9 5.1 21.3 10.3 22.3 10.3 1.4 0 3.2 3.2 3.2 5.6 0 2.1-4.8 7.4-6.6 7.4-.7 0-1.5-.9-1.9-2-.4-1.3-2.1-2.3-4.8-3-2.3-.5-6.4-1.6-9-2.4-4.3-1.3-4.9-1.3-5.4.1-.9 2.3 1.9 3.9 7.9 4.6 6 .8 8.3 2.5 7.3 5.7-1.6 5.2-13.5 7.9-19.5 4.5-1.6-.9-5.5-1.4-11.1-1.5h-8.6l-7.3-5.3c-4-2.8-9.3-6.7-11.9-8.6-6.8-4.9-15.4-8.5-26.1-11.1-12.9-3-14.5-3.7-18.1-7.8-2.7-3-3-4.1-2.6-7.5.3-2.3 2.6-8.1 5-13.1 8.1-16.4 9.6-32.2 5.2-55.8-1.3-7.3-3.2-15.4-4-17.8-2.1-5.7-7.3-33.2-8.1-42.6-.6-6.4-.3-8.6 3.5-21.8 5.7-19.7 6.2-23.3 4.3-31.4-1-4.2-1.6-12.3-1.7-21.7-.1-14.4-.3-15.4-3.9-26.5-2-6.3-5.2-16.9-7.1-23.5-1.8-6.6-3.6-12.7-3.9-13.5-.4-1 .6-2.1 3.1-3.5 3.4-1.8 3.8-2.5 4.1-6.3.3-3.9.5-4.2 2.5-3.6 5.8 1.9 10.1 2.4 20.8 2.4 6.3 0 14.2-.5 17.4-1.1 6.3-1.2 18.2-6.6 20.6-9.5 1.2-1.5 1.4-.2 1.7 10.9.2 10.4-.2 14.9-2.3 25.4m-140.4-17.5 6.7 2.2.6 6.2c1.2 11.3 5.4 22 7.8 19.6.5-.5-.5-6.2-2.1-12.8-1.6-6.5-2.8-12-2.6-12.2.1-.1 4.4.5 9.6 1.4 12 2.1 30.7 2.3 37.7.5 2.9-.7 5.4-1.2 5.6-1 .1.2-1 10.7-2.6 23.4l-2.9 23 2 9.5c1.2 5.2 2.1 11.6 2.1 14.2 0 5.5-2.9 15.5-7.6 25.9l-3.4 7.6.2 17.4c.2 19.8-.8 26.6-7.2 47.6-5.9 19.7-6.4 23.8-5.7 47.8.6 22.3 3.3 43.9 6.2 51 1 2.2 6.1 8.5 11.4 14.1 6.6 6.9 10.9 12.4 13.3 17.1 2.8 5.6 4.9 7.9 11.4 13.1 4.3 3.5 8.3 7.3 8.8 8.5.4 1.3 2.7 3.6 4.9 5.2 10.6 7.6 12.8 11.3 9 14.8-3 2.5-5.7 2.4-9.3-.6-2.3-2-3.6-2.5-4.4-1.7-.7.7-.3 1.8 1.7 3.6 1.5 1.3 2.7 2.9 2.7 3.3 0 2-4.3 6.1-6.5 6.1-1.2 0-2.8.7-3.5 1.5-.9 1-3.2 1.5-7.5 1.5-3.5 0-6.5.5-6.7 1-.2.6-1.9 1.3-3.9 1.6-2.9.5-5.4-.2-11.7-3-4.4-2-8.4-3.6-9-3.6-1.6 0-12.4-5-15.4-7.1-2-1.5-3.3-3.9-4.9-9.2-3.7-12.6-12-26.7-20.3-34.6-2.9-2.8-3.6-4.2-3.6-7.4v-3.8l3.9 4.5c2.1 2.5 4.1 5 4.3 5.7.5 1.5 2.8.3 2.8-1.4 0-.7-1.8-3.6-4-6.6-4.5-6-4.8-7.6-2.1-15.2 2-6 1.9-8.9-1.9-29.4-3.9-20.8-6.1-30.3-11.6-50.6-8.7-32.1-8.5-37.4 2.1-70.9 3-9.6 6-20.2 6.5-23.5 1.7-11 4.2-47.4 3.5-51.7-.4-2.4-2.9-11-5.7-19.2-5.3-16.2-8.8-29.5-8.8-34 0-2.3.4-2.7 1.8-2.2.9.3 4.7 1.6 8.3 2.8"/><path d="M417 131.8c0 4.1.6 5.8 4.1 10.8 2.3 3.2 5.9 7.8 8 10.2 2.1 2.4 4.8 6.8 6 9.8 2.4 5.7 3.9 6.9 3.9 3.1 0-3.8-4.5-11.9-9.9-18.1-7.2-8.1-8.5-10.3-9.1-15.4-.7-6.5-3-6.8-3-.4M385 169.5c0 .9.9 1.5 2.3 1.5 2.6 0 6.7 4 8.5 8.2 1.3 3.2 5.6 6.2 7.7 5.4 2.3-.8 1.8-3.4-.7-3.8-1.5-.2-3.1-1.8-4.6-4.6-3.2-5.8-13.2-10.9-13.2-6.7M368.5 172.9c-7.9 2-16.5 8.3-16.5 12.1 0 3.2 4 2.2 6.5-1.6 2.8-4.3 7.6-7.5 12.5-8.1 3.3-.5 3.8-.8 2.9-1.9-.6-.8-1.4-1.4-1.8-1.3-.3.1-1.9.4-3.6.8M480.5 177.9c-.4 2.1-1.7 3.3-4.6 4.6-5 2.3-5.9 3.4-6.2 8.1-.3 5.1 2.2 5.3 3.8.4.7-2 2.2-4 3.6-4.7 3.6-1.8 5.8-4.5 6.5-8.1.9-4.2-2.1-4.5-3.1-.3M417.2 178.5c-3.2 2.3-1.8 3.5 3.2 2.9 5.9-.9 10.5.9 15.1 5.6 3.6 3.7 4.3 4 9.3 4 4.5 0 5.5.3 5.9 2 .8 2.8 4.3 2.6 4.3-.3 0-3.6-1.2-4.5-7.7-6-3.8-.9-8.4-2.9-11.6-5.1-6.5-4.5-14.7-5.9-18.5-3.1M322.7 230.8c-.6.8 11 19.5 12.4 20 2 .8 2-3 0-7.2-2.3-4.6-9.6-13.6-11.1-13.6-.5 0-1.1.3-1.3.8M311.7 242.7c-.4.3-.7 2.2-.7 4.2s-1.1 5.7-2.5 8.3c-4.2 7.9-3.5 11.2 3.6 16.4 6.7 4.9 8.3 8.2 7.4 15.3-.9 7.3-4.1 14.4-9.4 20.5-4.7 5.4-6.7 9.4-5.3 10.8.5.5 3.5-2.2 6.9-6.2 9-10.2 12.7-21.6 11.3-34.3-.7-6.5-3.1-9.7-7-9.7-1.5 0-3.8-.9-5.1-1.9l-2.4-2 3.3-9.3c1.7-5.1 3.2-10.1 3.2-11.1 0-1.7-2-2.3-3.3-1M481 255.2c0 2.3 4.5 8.9 7.6 10.8 4.7 3.2 22.3 2.5 19.1-.7-.3-.2-4.1-.8-8.4-1.2-9-.8-10.3-1.4-13.5-6-2.5-3.7-4.8-5.1-4.8-2.9M464.7 261.6c-.4.4-.7 2.4-.7 4.5 0 6.6-5.4 9.5-21.4 11.4-3.5.5-6.6 1.5-7.6 2.5-1.9 1.9-4 10-4 15.5 0 2.6-.9 4.5-3.6 7.5-2.3 2.5-3.4 4.6-3 5.6.5 1.3 1 1.3 3.6-.6 4.3-3.1 5.6-5.6 6.9-12.9 1.7-10.5 2.9-11.4 17.4-14.2 4.1-.7 6.9-2 9.4-4.2 3.4-3 6.3-8 6.3-11 0-1.9-2.4-4.9-3.3-4.1M477.5 270.2c1.5 4.8 4.1 8.2 7.4 9.3 1.8.6 5.1 2.5 7.2 4.3 3.2 2.8 3.8 3.9 4.1 7.9.3 5 2.2 7.1 5.4 5.9 1.8-.7 1.8-.8-.3-2.4-1.2-1-2.1-2.8-2.1-4.2.1-3.3-2.5-9.3-5.1-11.9-1.3-1.3-3.4-2.1-5.5-2.1-3.7 0-5.4-1.4-6.5-5.7-.5-1.9-1.5-2.9-3-3.1-2-.3-2.2 0-1.6 2M388.3 271.7c-.4.9-.1 4.1.5 7.2.9 4.3 1.9 6.3 4.6 8.6l3.4 3-2.4 1.8c-3.6 2.7-6.1 2.1-11.4-2.9-5.2-4.9-6.5-4.3-3.5 1.6 4 7.8 11.9 9.3 18.4 3.5 2.1-1.9 4.8-3.5 5.9-3.5 1.2 0 3.9 1.8 6.1 4.1 3.1 3.1 4.7 4 6.8 3.7 3.3-.4 4.4-2.8 1.3-2.8-1.3 0-3.7-1.7-5.9-4-3.2-3.5-4.4-4.1-9.1-4.7-6.3-.7-9-2.5-9-6.2 0-2.7-3.4-11.1-4.5-11.1-.3 0-.9.8-1.2 1.7M470.1 274.3c-1.1 1.4-1.1 2.7.3 8.2 2 7.8 2 11.9.2 13.4-.7.6-5.5 2-10.6 3.1-9.1 2-18.4 6.2-20.4 9.2-.5.8-.6 2.3-.3 3.2.6 1.5 1.4 1.2 5.3-2.3 5.5-4.8 9.4-6.1 19-6.1 6.3 0 7.3-.3 9.5-2.6 2-2.1 2.4-3.5 2.3-8.2 0-3.2-.7-6.8-1.4-8.2-.8-1.4-1.7-4.5-2-6.9-.4-3.9-.7-4.2-1.9-2.8M380 301c0 4.7 9.4 9.8 16.3 8.7 2.2-.3 3.6.3 5.8 2.5 2.5 2.5 3.5 2.9 7.6 2.6 6.1-.4 7.1-2.8 1.1-2.8-5.2 0-6-.5-8.2-4.7-.9-1.8-3-3.9-4.6-4.8-5.3-2.8-8.3-1.2-3.8 1.9 2.2 1.6 2.2 1.6-1.3 1.6-2.6 0-4.6-.9-7.6-3.5-4.8-4.1-5.3-4.2-5.3-1.5M480 300.4c0 1.9 4.3 5.2 8.5 6.6 1.9.6 3.6 1.9 3.9 2.8.9 3 .4 14.7-.6 15.9-.6.7-.7 2.1-.3 3 .6 1.6.8 1.6 2.6-.6 1.3-1.6 1.9-3.7 1.8-6.5-.1-2.3.1-6.1.5-8.6 1-6-1.2-8.9-7.2-9.7-2.7-.4-4.6-1.2-5.3-2.4-1.1-2.2-3.9-2.5-3.9-.5M474.5 306.2c-1 3.3-2.6 16-2 16.6 1.6 1.7 6-11.5 5.1-15.4-.7-2.6-2.4-3.2-3.1-1.2M444.6 315.6c-1.6 4.1 0 11.4 2.1 10.1 1.5-1 1.3-11.7-.2-11.7-.7 0-1.6.7-1.9 1.6M393.1 322.9c-.6 1.1-1.1 2.3-1.1 2.7 0 1 13.1 13.4 14.1 13.4 2.4 0 .3-3.3-4.6-7.5-3.7-3.2-5.5-5.5-5.5-7.1 0-3.1-1.6-3.9-2.9-1.5M467.5 325c-.3.5-3.5 1-6.9 1-9.9 0-12.1.7-13.9 4.5-2.3 4.9-3 10-1.8 12.4.9 1.6.9 2.6 0 4.2-1.4 2.8.3 4.6 2.2 2.3.9-1.1 1.4-4.1 1.4-8.2 0-5.7.3-6.7 2.5-8.3 1.4-1.1 5.8-2.5 9.8-3.3 6.9-1.3 10.2-2.8 10.2-4.7 0-1.2-2.7-1.1-3.5.1M473 325.4c0 2.9 4.5 6.8 8.6 7.5 3.5.6 3.9.9 3.9 3.6 0 2 .5 3 1.5 3 1.1 0 1.5-1 1.3-3.5-.2-3.9-3.2-7-6.8-7-1.3 0-3.7-1.2-5.4-2.6-2.3-1.9-3.1-2.2-3.1-1M303.2 328c-3.6 5.8-3 10.6 2.4 18.5 7.5 10.9 9.8 16.8 9.9 25.5 0 6 .4 7.5 1.6 7.8 3.6.7 2.9-14.3-1.1-25.1-1.9-5-3.9-8.1-10.1-15.9-2-2.5-2.1-3-.9-7.2 1.7-6.2.8-7.9-1.8-3.6M418.5 333.1c-4.6 5.2-7.9 12.2-7.1 15.5 1 3.8 2.6 2.8 2.6-1.5 0-3.4.8-4.8 5.5-9.9 3-3.3 5.5-6.5 5.5-7.1 0-2.3-2.9-1-6.5 3M470.1 333c-.6 2.5-2.5 7.2-4.2 10.6-2.8 5.5-3 6.5-2 9.6.6 1.9.9 4.2.5 5.1-.4 1.3-.1 1.7 1.5 1.7 2 0 2.1-.5 1.9-5.8-.1-4.2.4-6.8 2-9.9 2.7-5.1 3.8-11.5 2.4-13.9-.9-1.5-1.2-1.1-2.1 2.6M398 344c0 3.5 2.5 8.9 4.9 10.7.9.6 3.9 2.4 6.7 3.8 4 2 5.3 3.3 5.8 5.6.6 3.1 2 3.8 3 1.4 1.1-3-1.8-6.7-8.4-10.5-6.6-3.8-8.7-6.3-9.2-10.9-.5-3.8-2.8-3.9-2.8-.1M427.6 351.2c1.4 10.1 1 14.9-1.4 20.6-2.3 5.2-2.3 8.2-.2 8.2.5 0 1-1.3 1-2.8 0-1.6.9-3.7 2-4.7s2.5-3.7 3.1-5.9c2-7.2-.6-21.6-3.8-21.6-1.3 0-1.4.9-.7 6.2M472 357c0 1.1 1.1 2.7 2.4 3.5 2.1 1.4 2.8 1.4 6.7.1 2.4-.8 5.4-1.3 6.8-.9 1.7.4 2.2.2 1.9-.7-.9-2.7-3.5-3.5-7.7-2.4-3 .8-4.5.8-6.3-.2-3.2-1.8-3.8-1.7-3.8.6M444 357.8c0 4.4 14 5.2 14.8.7.3-1.5 0-1.7-2.5-1-3.5.9-3.9.9-8.5 0-2.4-.4-3.8-.3-3.8.3M465.2 372.2c-1 1.3-1.5 4-1.3 6.5.2 2.3 3.1 1.4 3.1-1 0-1.2.3-3.2.6-4.5.7-2.4-.7-3-2.4-1M526.1 436c-1.3 6.2-1.4 10.7-.2 11.4.5.3 1.2-1.6 1.5-4.2.4-2.6.9-6.4 1.2-8.5.9-5.6-1.3-4.5-2.5 1.3M653.2 351.7c.2.9 2 2.2 4 2.9 8.8 3 19.9 13.5 25.5 24 12.3 23.2 17.1 72.4 9.8 100.9-3.5 13.7-12.2 27.1-21.1 32.6-3.2 2-4.6 4.9-2.3 4.9 1.8 0 9.3-5.6 13.6-10.3 12.2-13.2 17-33.1 16-66.9-1-37.6-8.4-61.5-23.8-77-8.5-8.7-22.7-15.9-21.7-11.1M374 396.2c-5.2 8.5-9 23.6-9 35.7 0 7-.2 8-2.2 9.3-2.3 1.5-2.3 2-2.9 26.9l-.6 25.4-3.2 7.4c-2.6 5.8-3.4 9.3-4 17-.5 6-.4 10.3.2 11.6 1 2 1 2 1.8 0 .5-1.1 1.5-6.7 2.3-12.5.9-6.3 2.7-13.1 4.3-17 2.8-6.4 2.8-6.7 2.9-28.5 0-12.1.4-23 .8-24.3.4-1.3 1.5-2.2 2.7-2.2 5.7 0 13-7.2 15.4-15.2.8-2.8 1.5-5.7 1.5-6.4 0-.7 2.3-6 5.2-11.9 3.8-7.8 4.8-10.9 4-11.7-2.5-2.5-7.2 5.2-13.2 21.7-4.3 11.9-5.4 13.9-8.6 16l-2.7 1.7.5-9.8c.5-8.3 1.3-11.7 4.7-21 4.1-11.2 5-15.4 3.1-15.4-.6 0-1.9 1.5-3 3.2M394 411.5c0 .3 1.1 2.3 2.4 4.4 3.4 5.3 11.7 10.5 22.7 14.3 8.2 2.7 11.1 3.2 22.5 3.6 13.5.4 20.2-.7 30.7-5.2l3.8-1.7-2 3.9c-3.1 6.2-7.9 10-14.9 12.2-7.8 2.4-14.8 2.5-24.7.3-12.4-2.7-11 1 1.8 4.9 8.1 2.4 20 2.2 25.7-.5 8.4-4 20-17 20-22.4 0-3.3-2.3-3.8-8.8-2-10.4 3-19.6 4.6-29.7 5.3-9.6.6-10.4.5-21.1-3-8.1-2.6-13.3-5.1-19.3-9.1-8.2-5.5-9.1-6-9.1-5M413 477.8c0 1 3.4 4.6 7.7 8.2 4.2 3.6 8.9 7.8 10.4 9.4 1.8 1.8 3.3 2.7 4.4 2.3 1.4-.6 1.4-.9-.1-3.8-3-5.9-17.2-17.9-21.1-17.9-.7 0-1.3.8-1.3 1.8M144 419.6c0 .9 1 1.8 2.1 2.1 1.2.4 4.2 1.7 6.6 3 17.8 9.4 29.4 30.8 33.8 62.3 4.6 33.1 2.2 62.2-6.6 80.7-3.1 6.6-11.5 16.1-18.4 20.9-1.6 1.2-2.7 2.5-2.3 2.9 2.5 2.7 14.6-7 20.9-16.8 3.8-5.9 7.7-16.4 10.1-27.2 2.1-9.6 1.8-50.3-.5-64-5.6-33.2-17.9-53.7-37.8-63-6.3-2.9-7.9-3.1-7.9-.9M457.6 576.5c-2 5.4 1.5 19.9 6 24.6 1.8 1.9 3.8 2.9 5.6 2.9 3.6 0 3.6-1.5-.1-4.6-4.9-4.1-6.9-8.4-7.8-16.3-.8-7.1-2.4-10-3.7-6.6M471 626.5c-1.5 3.9-1.2 6.6 1.1 11 1.2 2.2 3.2 6 4.4 8.5 2.6 5.2 4.9 7.5 6.5 6.5 1.6-1 .4-5.1-3.1-10.2-4.1-5.9-5.8-10.3-5.2-13.4.3-1.6-.1-3-1.1-3.8-1.3-1.1-1.7-.9-2.6 1.4M482.2 673.9c-1 .6-1 1.3 0 3.7 1.6 3.7 1.5 32.2-.2 38.4-.6 2.5-3.2 8.9-5.8 14.3-3.7 7.9-4.3 10-3.2 10.7 3.6 2.2 8.4-5.2 12.1-18.5 1.9-6.9 2-9.8 1.7-27.1-.2-15.5-.6-19.6-1.8-20.8-.9-.9-2-1.2-2.8-.7M467.6 791.2c-.9 1.2-1.6 2.6-1.6 3 0 .4-1.1 2.4-2.5 4.4-1.5 2.3-2.5 5.1-2.5 7.3 0 4 2.3 8.1 4.6 8.1 2.2 0 2.8-2.6 1-5.2-2.3-3.3-2-7.6.9-11 1.4-1.7 2.5-4.2 2.5-5.9 0-3.5-.4-3.6-2.4-.7M487 812.1c0 2 10.8 15.5 17.4 21.6 4.4 4.2 7.5 6.3 9.1 6.3 1.4 0 2.5-.3 2.5-.8 0-.4-2.8-2.8-6.3-5.3-3.4-2.6-8-7.2-10.2-10.4-6.8-9.7-12.5-15-12.5-11.4M548 841.9c0 2 3.5 5.1 5.7 5.1 2.1 0 1.5-3.8-.9-5.4-3-2.1-4.8-2-4.8.3M409.2 592.2c-.5.7-2.1 3.6-3.5 6.4-2.9 5.8-6.3 9-12.5 11.8-2.8 1.3-4.2 2.5-4 3.5.5 2.3 5.9 1.8 10.2-.9 4.2-2.5 13.6-16.1 13.6-19.6 0-2.6-2.1-3.2-3.8-1.2M393 628.1c0 2.2 1 4.1 3.3 6.4 3.1 3.1 10.1 6 11.9 4.9 1.4-.9.9-2.4-.7-2.4-3.3 0-7.4-3.1-9.9-7.5-3.1-5.3-4.6-5.7-4.6-1.4M405.8 661.7c-3.3 3.5-7.1 11-9.5 18.8-1.5 5.1-1.8 9.5-1.8 28.5 0 23.4.5 28 3.1 28 1.2 0 1.3-.9.7-5.3-.4-2.8-.8-11.7-.7-19.7.1-17.5 2.2-27.7 8.9-41.8 4.1-8.6 4.7-11.2 2.6-11.2-.4 0-1.9 1.2-3.3 2.7M397 815.9c0 5.5-1.7 9.8-6.6 16.5-4.6 6.2-5.4 8.6-3 8.6 4.2 0 14.8-21.8 13.1-27-1.1-3.6-3.5-2.4-3.5 1.9M401 843.9c0 2.2 7.5 25.2 10 30.7 2.9 6.5 4.6 8.2 6.2 6.6.6-.6-.1-3.3-2.1-7.7-1.7-3.7-4-10-5.2-13.9-2.4-8.1-6.5-16.6-7.9-16.6-.6 0-1 .4-1 .9M442.8 887c-1.5.4-4.7 2.2-7.1 4-3.8 2.7-9.9 4.5-20.4 6-.2 0-.3.7-.3 1.6 0 3.8 22-.9 23.6-5 .7-1.8 5.6-3.6 8.2-2.9 2.6.6 3.6-1.2 1.6-3.1-1.7-1.8-1.8-1.8-5.6-.6M441 898.2c.1 3.2 2.5 6.1 4.7 5.6 2.1-.4 1.9-3.4-.4-6.1-2.2-2.4-4.3-2.1-4.3.5"/></svg>