<svg xmlns="http://www.w3.org/2000/svg" width="992.5" height="1200" viewBox="0 0 794 960"><path d="M445.5 170.6c-11.3 1.8-19.3 5.8-24.8 12.6-10.5 13-12.5 29.1-5.8 48.4 3.4 10.1 3.8 14.7 1.7 19.9-1.6 3.7-2.5 4.1-12.3 4.8-7.3.6-15.4 4-20.9 8.9-2.2 1.9-9.7 6.3-16.7 9.6-11.4 5.4-13.7 7-20.1 13.4-5.3 5.4-8.6 10-12.8 17.8-11.5 21.5-13.8 30.6-14.3 56-.2 12.2-.8 19.6-2 24.5-1.1 4.3-1.8 11.8-1.9 19.8-.2 11.4-.5 13.1-2.5 15.8-3.1 4.2-5.1 10.3-5.1 15.8 0 4.3-.5 5.2-8.2 14.1-9.7 11.3-12 16.2-15.3 32.6-3 15.2-3.1 16.9-.5 26.3 2.6 9.3 3.8 11.6 10.1 19.1l5 6.1-.4 7.7c-.5 10.5-2.4 18.4-6.4 26.8-2 4-3.9 10-4.5 14-1.8 12.3-1.3 11.4-6.2 11.4-4.7 0-65.9 4.6-71.2 5.4l-3.2.4-2.2-8.6c-6.3-25.1-16.6-43.2-31.7-55.7-9.2-7.6-15.4-9.9-26.8-10-7.8 0-9.8.4-14.8 2.7-20.4 9.6-35.6 39.3-37.4 73-.4 7.6-1 11.8-1.7 11.8-.6 0-12.6 1.1-26.6 2.5-14 1.4-26 2.5-26.7 2.5-1.7 0-3.6 7.5-2.8 11 .3 1.5 1.5 3.6 2.5 4.5 1.9 1.7 3 1.7 24.2-.4 12.3-1.2 24.4-2.4 27.1-2.8l4.7-.6v3.6c0 10.4 6.2 32.2 13.1 45.8 11 22 23.6 34.2 39.4 38.4 15.6 4 29.2-1.1 41.1-15.4 14.3-17.3 21.4-40.9 21.4-71.9 0-10.7.3-14.2 1.3-14.2.6 0 15.2-1.1 32.2-2.4l31-2.4 3.9 3.5c3.6 3.3 4.1 3.4 9 2.9 7-.8 8-.8 17.1.5 4.4.6 10.5 1.2 13.5 1.4 3 .2 7.5.9 9.8 1.6 3.7 1 4.9.9 7.7-.4 3.4-1.6 6.5-6.4 7.9-11.9.5-2.3 1.2-2.8 5.4-3.3 2.6-.3 5.9-.8 7.3-1l2.6-.4-.4 7.7c-.1 4.2-.5 24.6-.7 45.2-.2 24-.8 38.5-1.5 40.3-.6 1.5-1.5 5.1-2 8-.6 2.9-1.5 7.2-2.2 9.7-1 4.1-.9 5 .9 8.5 1.2 2.2 5 7.4 8.7 11.5 5.6 6.4 7.2 9.2 11.1 19.3 2.6 6.4 6.2 13.7 8 16.1 3.2 4.2 11.8 9.6 15.4 9.6.8 0 4.9 1.4 9 3.2 5.5 2.3 8.9 3.1 13 3.1 9.5-.2 20.9-1.9 22.7-3.5 1-.9 3.9-2.5 6.5-3.6 2.5-1.1 5.1-2.9 5.7-4 .6-1.1 3.3-2.8 6-3.7 3.6-1.2 5.2-2.3 6-4.3 2.2-5.4.1-8.6-16.3-24.6-8.5-8.3-17.4-18-19.8-21.6-2.4-3.6-7.9-10.9-12.3-16.4-13.4-16.6-13.5-16.7-13.5-20.5.1-5.4 3.3-19.1 7.9-33.1 2.8-8.8 6-15.9 10.7-24 3.7-6.3 9-15.8 11.7-21 2.7-5.2 5.1-9.6 5.1-9.7.4-.5 25.1-3.1 25.5-2.7.3.2-.3 2.8-1.2 5.7-.9 2.8-1.9 7-2.2 9.2-2 11.9-19.1 65.8-23.7 74.6-8.3 15.8-3.4 22.8 18.7 27.2 10.5 2.1 13.1 3.1 21 7.7 5 2.9 11.8 7.6 15.3 10.3 9.1 7.2 12.6 8.7 19.8 8.7 3.5 0 9.6.7 13.6 1.5 9.4 2 14.7.9 21.3-4.6 2.6-2.1 5.4-3.9 6.2-3.9.8 0 3-1.5 4.9-3.4 3.9-3.9 4.4-7.7 1.8-13.1-1.3-2.9-2.8-3.8-10.8-6.9-24.1-9.4-39.5-22.3-57.4-48-4.2-6.1-3.2-7.5 25.9-35.1 9.6-9.1 14.7-15.7 21.2-27.5 3.6-6.4 3.7-6.4 7.5-6.1 3.2.2 4.6-.3 7.4-2.8 3.4-2.9 3.8-3 27.4-5.5 13.2-1.4 24.9-2.6 26-2.6 1.9 0 2.2 1 3.3 8.5 3.4 24.6 16.5 51.9 30.9 64.6 9.8 8.6 23.1 12.9 33.7 11 8.2-1.5 14.4-5.2 21.7-12.9 15.2-16.2 23-39.8 23-70.2v-13.6l15.2-1.3c19.8-1.7 20.4-1.8 22.1-5.2 2.2-4.1 1.8-6.5-1.2-9.9l-2.8-3.1-17.5 1.9c-9.6 1.1-17.6 1.8-17.7 1.7-.2-.1-1.4-4.4-2.7-9.6-6.4-24-17-42.1-31.4-53.4-8-6.4-14.9-8.8-24.7-8.9-7.1-.1-8.8.3-14.7 3.2-19.4 9.5-33 36.5-35.5 70.7l-.8 10-15.5 1.2c-8.5.7-18.9 1.7-23 2.2-4.1.4-7.6.7-7.7.6-.2-.1 1.9-2.4 4.5-5.1 2.7-2.8 5.9-7.2 7.2-9.8 1.9-4.1 2.2-5.8 1.7-11.9-1.1-14.1-6.5-23.7-18.8-32.7l-7.1-5.4.6-4.5c3.9-27.5 3.4-36.3-3-54.7-2.6-7.7-5.6-16.5-6.7-19.7l-2-5.8 2.1-11.7c3.5-18.5 2.6-36.1-2.1-46-2.7-5.7-2.7-14.2-.2-25.7 2.3-10 1.7-18.3-1.7-25.8-3.6-7.6-11.5-15.9-18.6-19.2-3.1-1.5-8-4.9-10.9-7.5-4.6-4.2-10.5-7.6-20.3-11.8l-2.5-1.1h2.5c4.6-.2 14.5-3.1 16.1-4.9 1.2-1.1 2.2-5.6 3.3-13.7 1.8-14.1.8-41.4-1.8-50.1-3.9-12.6-15-23.9-27.8-28.4-6.3-2.1-23.1-3.5-30.3-2.4m24.6 6c24.7 7.3 32.9 23.2 31.6 60.9-.3 8.8-1.1 17.7-1.8 19.7-1.4 4.3-4.7 6-15.2 7.8-8 1.4-15.5-.2-25.8-5.6-9.9-5.2-11.6-7.1-12.4-13.8-.8-6.5-2.8-7.1-3.3-1-.5 5.8 1.4 10.8 5.4 14.4 4.1 3.6 13.9 8.5 20.2 10 5.4 1.4 5.4 3.2.3 9.7-4.7 5.9-5.7 9.1-3.7 11.8 1.6 2.2 1.8 1.9 3-3.7.4-1.5 1.9-4.2 3.5-6 1.6-1.8 3.6-5 4.4-7.1 1.8-4.1 2.8-4.5 4.8-2 .8.9 5 3.3 9.4 5.3 5.7 2.7 9.6 5.4 13.5 9.4 3.7 3.8 6.8 6 9.4 6.7 4.9 1.3 13.3 9.6 16.6 16.4 3.6 7.2 4.1 25.5 1.1 36.9-2.5 9.4-2.8 17.6-.7 17.6.8 0 1.7-.8 2.1-1.8 1.2-3 2.3 1.7 3.9 17.3 1.4 13 1.4 15.2 0 22.7-2.6 13.5-2.8 19.1-1.1 22.9 1.9 4 6.9 23.7 9.3 36.4 1.2 6.8 1.5 12.1 1.1 21.8-.3 7.1-.8 13.1-1 13.4-.3.2-2.5-1.7-5-4.4s-7-6.6-10-8.8c-3-2.1-5.9-5.1-6.4-6.6-1.4-3.6-5.3-6-13.2-8l-6.5-1.6-2.9-8.4c-2.5-7.4-2.9-10.5-3.7-26.4-.7-15.7-1.2-19-3.4-24.9-1.4-3.8-2.6-8.5-2.6-10.6 0-3.5.4-4 6-7.4 6.9-4.3 12.6-11.9 17.3-23.1 2.5-5.8 3.1-9.1 3.8-19.5 1.1-16.1 1.5-18.3 3.9-20.5 2.3-2.1 2.6-4.5.6-4.5-3.3 0-5.3 4.8-6 13.7-2.3 28.8-13.8 48.8-29.6 51.8-5.4 1-17.2-1.2-19.2-3.5-2.3-2.8-4-2.5-3.6.7.5 4 5.5 6.5 14.4 7.1 4.5.3 7.4.9 7.4 1.6 0 2.3-9.3 15.6-10.9 15.6-.4 0-.6-1.4-.3-3 .8-5.7-3.4-11.6-6.8-9.5-1.6 1-4-1.5-4-4.1 0-1.5-.6-2.4-1.5-2.4-1 0-1.5 1.1-1.5 3.5 0 3.3.3 3.7 5.5 6 3 1.3 5.6 3 5.7 3.7.9 7.6 0 9.6-6 12.7-2.8 1.5-9.2-.2-9.2-2.4 0-2.1-1.9-2.8-2.6-1-.4.9.2 2.5 1.5 3.9l2.1 2.3-4 1.2c-5.2 1.5-11.6 7.2-13.2 11.7-1.4 3.9-3.5 4.4-4.7 1.1-.7-1.8-.1-3 3.4-6.9 4-4.5 6.2-8.8 4.5-8.8-.4 0-2 1.7-3.5 3.7-1.6 2.1-4.1 5.2-5.7 6.9-2.4 2.6-2.7 3.5-1.9 5.6.5 1.4 2 3.3 3.2 4.1 1.7 1.2 2 2.1 1.5 4.3-.8 3.2-6 11.2-10.8 16.7l-3.3 3.8-15.3.6-15.4.6 2.2-4.3c1.5-3 1.9-4.5 1.1-5.3-.8-.8-1.7.4-3.3 4.1l-2.2 5.2-4-.6c-7-1-21.6-4.5-22.1-5.3-.2-.4-.7-2.8-1.1-5.2l-.7-4.4 3.2 4.2c3 4.2 5.1 5.5 5.1 3.1 0-.6-1.2-2.7-2.6-4.6-2.3-2.9-2.6-4-2-7.8.7-5.7-1.1-5.9-2.1-.2-.6 3.8-.8 4-1.4 1.8-1-3.6 0-7.1 2.9-10.3 3.2-3.4 5.2-3.5 5.2-.3 0 1.4.5 2.8 1 3.1 1.7 1 2.4-2.5 1-5.1-1.1-2-1.1-2.7.2-4.1 3.7-4.1 8.9-12.8 11-18.4 2-5.2 2.6-5.9 4.6-5.6 2.6.5 4.1-1 1.8-1.9-2.5-1-2.6-3.3-.4-10.9l2.2-7.4 3.8 3.5c5.3 4.7 7.7 5.5 19.3 6.1 17.7 1 35.9-2 42.9-7 5.9-4.2 13.5-20.2 10.8-22.9-.9-.9-1.2-.8-1.2.5 0 5.8-9.6 17.4-17 20.6-12 5.2-43.1 4.9-51.1-.3-4.6-3.1-6.7-6.1-6.9-10.1-.3-5.1-.2-5.3 7-13.1 7.7-8.3 10.6-13.1 11.6-19.3 1-6.3-1.2-5.1-4.8 2.6-4 8.4-10.5 14.8-19.6 19.6-4 2.1-7.2 4.2-7.2 4.8 0 1.2 3.7 1.2 6.2-.2 1.1-.6 2.2-.9 2.4-.6 1.1 1-1.9 18.7-4.3 25.7-4.5 13.5-12.1 26.8-19.1 33.8-3.5 3.5-6.5 6.2-6.7 6-.2-.2-1.5-2.5-2.9-5.2-2.8-5.3-3.2-8.6-1.5-11.8 1.9-3.6-.6-4.2-3.5-.8-3.6 4.4-3.4 8.3.9 14.6 4.5 6.5 7.5 15 7.5 21.1 0 6-2.3 20.3-5 30.8-1.1 4.5-4.8 13.7-8.4 21-7.5 15-9 20.3-11.2 38.6-1.9 15.9-1.3 26.5 2 37.6 4.3 14.6 5.1 20.6 3.8 28.6-1.8 10-3.1 11.7-9.1 11.7-2.6 0-5-.2-5.3-.5-.6-.6 1.2-6.6 4.4-15.2 2.2-5.9 1.7-8.4-1.2-5.8-2 1.8-5 9.5-5 12.7 0 1.1-.7 3.2-1.5 4.8-1.3 2.6-2.1 3-5.6 3h-4.1l.7-3.8c.4-2 1.6-5.8 2.7-8.4 2.2-5.2 2.1-8.1-.5-8.6-1.2-.2-1.7.3-1.7 1.8 0 1.2-.7 4.5-1.6 7.3-3 10-2.8 9.7-8.7 9.7-3 0-5.6-.3-5.9-.6-.4-.3 1.1-3.1 3.3-6.1 4.3-6.2 4.6-7.8 2.3-11.1-2-3-3.8-1.8-3 2.1.5 2.5-.1 4.1-2.8 8.2-4.1 6.2-10.1 9.5-14.1 7.7l-2.5-1.1 3-4.8c3.3-5.4 7-17.8 7-23.5 0-7.4 6.8-20.8 10.6-20.8 1.1 0 1.1-.5.2-2.5-.8-1.8-.8-3.6.3-7.2 1.7-6 1.7-28.5-.1-44.6-1-9.2-1.1-14-.1-23.9 1.2-11.7 2.6-17.3 9-34.8 1.4-3.9 1.8-6.8 1.4-10.1-.8-7.1.4-11.6 4.5-16.1l3.7-4.1.6-18.1c.6-20.7 2.3-27.1 9.8-39 2.2-3.6 4.1-7 4.1-7.6 0-.7.8-.9 1.9-.5 2.3.7 2.7-.9 3.6-13.5 2-28.3 3.3-36 7.6-44.4 3.4-6.6 3.2-8.2-.5-4-6.6 7.4-12.6 26.5-12.6 40.1 0 7.6-.3 8.8-5.1 19.5-2.8 6.2-5.5 11.7-6 12.2-1.1 1.3-1.1-2.5.1-18.2 1.1-13.7 3.5-22.3 10.1-35.5 10.6-21 17.4-27.2 40.2-36.7 5.1-2.1 9.6-4.9 13.1-8.1 6.6-6 11.7-7.9 22-8.3 9.3-.3 10.8-1.5 12.6-10.1 1.3-6.3.7-10.2-3.3-21-2.4-6.6-2.9-9.7-3.1-17.5-.1-9.1.1-10 3.3-16.3 5.3-10.5 12-15.6 25.2-19.1 7.3-2 19.3-2 26 0M489.9 413c1.4 5.3 2.5 14.3 3.1 24 .9 14.6 2 23.2 3.5 27.3.7 1.6.3 1.7-3.6 1.1-6.1-.9-10.7-2-15.6-3.8-7.1-2.6-16.2-3.1-22.9-1.1-4.2 1.2-7.7 1.6-12.3 1.1-9.3-.8-9.8-1.6-5.1-8.5 2.4-3.5 4.5-8.2 5.4-11.9.8-3.4 2.4-7.7 3.5-9.6 2.2-3.5 3.6-4.3 16.3-9.6 9.7-4 14.7-7.6 20.1-14.5 2.6-3.4 4.4-5 4.8-4.2.4.7 1.6 5 2.8 9.7m-186.8 47.4c-5.2 14.8-6.4 23.8-5.7 43.1.3 9.3.8 18.8 1.1 21 .6 3.8.6 3.9-1 2-2.7-3.3-7.7-13.7-9.1-19-1.7-6.1-1.8-17-.3-23.3 1.7-6.9 7.9-19.8 13-26.9 2.4-3.3 4.5-6 4.7-5.8.2.2-1 4.2-2.7 8.9m70.4 4.6c9.5 2.4 29.3 4.4 37.4 3.7 3.6-.3 9.3-1.4 12.5-2.5 4.2-1.3 7.1-1.7 9.8-1.2 2.2.4 5 .5 6.1.2 2.2-.5 2.2-.5-.1 2.1-1.3 1.4-4.7 3.5-7.5 4.7-4.1 1.8-6.3 2.1-12.1 1.7-3.9-.3-8-.7-9-.9-3.6-.6-2.8 2.2 1.1 3.9 4 1.7 16.8 2.3 21.5 1 1.4-.4 4.9-2.6 7.7-5 4.4-3.8 6-4.5 12.8-5.7 13.5-2.3 16.1-2.3 24.6-.2 4.5 1.1 12.9 2.8 18.7 3.7 14.2 2.2 14.7 2.6 5.8 4-4.3.7-9.9 2.3-12.5 3.6-13.7 6.6-26.7 29.3-28 48.9-.6 8.5.6 12.2 5.3 15.9 4.3 3.4.7 2.4-7.8-2.2-7.3-3.8-8.3-4.7-10.8-9.7-1.6-3.1-4.8-8.3-7.3-11.5l-4.5-5.9 2.3-3.1c2.7-3.5 4.1-8.4 4.9-17.9.8-7.9 2.7-13 6.2-16.7 1.8-1.8 2.2-2.9 1.4-3.4-3.4-2.1-12.3 13.3-13.4 23.2-.7 5.8-3.3 13.3-4.6 13.3-1 0-4-4.6-6.2-9.3-2.3-5.1-13.7-16.9-21.2-22-8.6-5.8-12.6-6.7-29.9-6.7h-14.9l.6-2.3c.3-1.2.6-3.3.6-4.6 0-1.8.4-2.2 1.8-1.6.9.4 4.9 1.5 8.7 2.5m27.1 13.4c5.1 2.4 9.3 5.6 14.9 11 8.4 8.4 9.7 11.9 1.5 4.2-7.4-7-13.8-9.6-23.2-9.6-20.1 0-28.1 4.9-43.1 26.7-4.3 6.2-8 11.3-8.2 11.3-.7 0 1-3.9 6.9-15.5 3-6.1 6.9-15.3 8.7-20.5 1.7-5.2 3.6-9.8 4.3-10.2.6-.4 7.9-.8 16.1-.8h15.1l7 3.4m115.7 2c5.8 2.1 20.5 13.8 27.2 21.7 3.3 3.9 8.8 9.4 12.3 12.1 7.1 5.7 10.4 10.7 12.6 19.3 2.2 8.3 2 11.8-1 17.8-4.2 8.4-9.3 14.3-16.6 19.3-6.4 4.5-7.2 5.4-13 16.3-9.5 18.1-14.8 25-28.7 37.8-19.4 17.8-24.1 23.8-24.1 30.9 0 3.7.9 5.4 7.8 14.5 14.8 19.7 27.5 30 49.2 39.9 15.2 6.9 16.9 9.3 11.1 15.1-3.5 3.5-4.5 3.6-5.8.6-.9-1.9-2.6-2.7-8.9-4.1-4.4-1-8.5-2-9.1-2.3-2.1-.8-1.5 3.5.6 4.7 1.1.5 3.5 1 5.5 1 8.3 0 10.8 3.5 6 8.3-3.5 3.5-9.9 4.4-16.3 2.3-2.8-.9-8.2-1.6-12.1-1.6-8.4 0-10.3-.8-22-9.8-10.3-7.9-19.6-12.4-31.5-15.3-12-2.9-16.1-4.7-19.1-8.2-3-3.5-3.1-7.1-.3-12.2 1.2-2.2 4.3-10.1 7.1-17.5 11.1-30.1 15.7-44 17.7-53.5 2.5-11.5 10.1-36.3 13.6-43.9 1.2-2.8 5.3-8.3 8.9-12.3 6.4-6.9 6.7-7.1 9.8-6.2 1.8.5 4.2 2.1 5.4 3.6 1.9 2.3 2.6 2.6 4.1 1.7 2.8-1.7 2.7-4.2-.5-7.3-2.9-3-8.9-5.1-23.7-8.5-13.5-3.1-18.4-10.8-15.1-23.6 2-7.6 9.1-22.6 13.5-28.7 7.6-10.4 24-15.9 35.4-11.9m157.2 8.6c13.9 6.7 26.3 24.1 34 47.3 4.7 14.4 6.5 26.4 6.5 44.2 0 31.7-7.6 54.8-23.1 70.4-15.2 15.2-37.9 11.8-53.8-8.1-6.4-8-15.3-25.8-18.5-36.9-2.6-9.1-5.3-24.5-4.4-25.4.2-.3 9.2-1.4 19.8-2.5 10.6-1.1 19.4-2.1 19.5-2.2.1-.2.9-1.4 1.8-2.8 2.4-3.5 2.1-6.5-1-10l-2.8-3.1-15.5 1.5c-8.5.9-17.2 1.9-19.2 2.2l-3.8.6v-5.4c0-15.1 6.2-38.8 13.1-50.4 4.2-7.1 11.9-15.6 16.7-18.6 9-5.6 20.5-5.9 30.7-.8m-266 3.5c6.6 3.8 17.1 13.9 20.3 19.5 1.4 2.5 4.9 7 7.9 10.2 8.9 9.4 15.3 26.5 13.3 35.2-.5 2.1-1.9 5-3.3 6.5-4.1 4.3-5.5 7.3-8.1 16.2-3.6 12.5-9.3 25-19.6 42.7-7.7 13.4-9.7 17.9-13.1 29.2-7.3 24.1-8.6 35.8-4.8 43.2 1.2 2.3 6.3 8.6 11.5 13.9 5.7 6 10.5 12.1 12.2 15.6 3.3 6.5 6 9.5 14.4 15.9 3.1 2.4 5.9 5.3 6.3 6.4.3 1 2.5 3.4 4.8 5.1 10.9 8.4 13 12.2 8.5 15.3-3.2 2.3-5.8 2-9-1.1-2.3-2.2-3.1-2.4-4.1-1.4-1 1-.6 1.7 1.8 3.7 2.9 2.3 2.9 2.5 1.5 5.1-.9 1.6-2.9 3.3-4.6 3.8-1.7.6-3.8 1.6-4.8 2.4-1.1.9-3.2 1.2-6.9.8-3.8-.4-5.7-.1-6.9 1-2.5 2.2-8.6 1.9-13.4-.5-2.2-1.1-6.9-3-10.5-4.2-3.5-1.1-9.1-3.5-12.4-5.3l-5.9-3.2-3.6-10.6c-3.9-11.7-10.9-23.5-18.5-30.9-3.8-3.7-4.5-5-4.5-8.3v-3.9l4 4.1c2.2 2.2 4 4.8 4 5.6 0 .9.6 1.2 1.5.9 2.4-1 1.7-3.9-2-8.4-4.5-5.4-5.1-7.9-3-13.7 1.3-3.5 1.8-9.3 2.2-21.8.2-9.4.8-30.3 1.2-46.5l.8-29.5 3.1-8.4c2.8-7.4 10-20.8 17.9-33.5l2.5-3.8 2.2 2.1c2.9 2.7 3.6 2.6 3.6-.3 0-5.6-12.9-13.5-23.4-14.3-10.4-.7-12.5-1.3-16.1-4.5-2.7-2.3-3.5-2.6-3.5-1.3 0 .9 1.2 3.2 2.6 5 3 4 7.3 5.5 15.9 5.5 7 0 12.8 1.4 14.5 3.6 2.6 3.1-.2 3.5-14.5 2.3-20-1.8-24.8-4.9-26.2-16.7-1-8.6.1-11.1 11.1-25.9 17.1-22.9 22.4-26.5 39.1-26 8 .2 9.7.6 14 3.2m-252 41c23.5 6.2 43.7 40.2 48.6 81.5 1.4 12.3.6 33.8-1.6 45-5.9 29.5-21.4 51.4-39.2 55-15.7 3.3-33.2-7.1-45.7-27.2-8.4-13.6-15.6-34.7-17.2-50.3-.7-6.4-.6-6.5 1.7-6.5 1.3 0 10.4-.9 20.2-1.9 19.2-2 21-2.7 22.2-8.1.6-2.9-1.2-7.7-3.7-9.7-.9-.8-6.3-.6-19.3.8-24.9 2.6-22.5 3-22.5-3.9 0-28.1 14.4-61.3 30.6-70.8 9.2-5.4 16.1-6.4 25.9-3.9m318 16.2c3.3.2 8.1 1 10.7 1.9l4.8 1.6-5.4 5.3c-5.7 5.7-11 12.7-12.5 16.9-.8 2-1.9 2.6-5.3 3-15.7 1.9-22.2 2.5-22.6 2.1-.6-.6 4-7.9 8.5-13.5l3.6-4.5-.6-9.7-.5-9.6 6.6 3.1c4.8 2.3 8.4 3.3 12.7 3.4m-132.6-.9c1.8 3.6 6 7.8 10.7 11 1.7 1.1 1.5 1.2-1.6.6-1.9-.3-5.7-1.5-8.3-2.7-4.6-1.9-4.8-2.2-4.3-5 .3-1.6.6-4 .6-5.3 0-3.3.7-3 2.9 1.4m413.1 8.6c0 1.2-.4 2.6-.8 3.3-.4.6-7.8 1.9-17.5 3l-16.7 1.8-.6-3.1c-1.2-6.7-1.2-6.7 13.6-8.1 7.4-.7 14.9-1.3 16.5-1.5 3.3-.4 5.5 1.5 5.5 4.6m-402.4 7.2c5.6.5 8.3.3 8.8-.5.9-1.4 14-1.5 16.7-.1 3 1.7 2.3 3.7-4.2 12.4-3.4 4.5-6.6 9.1-7.1 10.3-.9 1.8-2.2 2.2-9.2 2.8-4.4.3-9.3.8-10.8 1.1-3.1.6-2.6 1.8-5.8-14.3-1.1-5.6-2.3-10.9-2.7-11.9-.5-1.4-.1-1.6 2.8-1 1.9.3 7 .9 11.5 1.2m300.4.3c1.2 2.3 1.3 5.1.2 6.8-.7 1-35.7 4.9-88.7 9.9l-7.1.6-1.2-3.8c-1-3.2-.9-4.1.2-4.9.7-.6 17-2.5 36.2-4.4 30.9-3 56.5-5.6 58.6-6 .4 0 1.2.8 1.8 1.8m-100 16c0 3-3.9 7.1-6.6 7.1-2.5 0-2.5 0 1.2-4.5 3.9-4.9 5.4-5.6 5.4-2.6m-83.3 1.5c-.3.8-1.1 3.2-1.7 5.3l-1.2 3.9-12.5 1.3c-6.9.6-12.7 1.1-12.8.9-.2-.2.2-2.4.8-4.9l1.1-4.7 12-1.2c6.7-.6 12.3-1.4 12.5-1.6 1-1 2.3-.3 1.8 1m-107.6 15-1.6 5.4-6.8.7c-3.8.3-7 .5-7.2.3-.1-.2-.5-2.4-.7-5l-.5-4.6 8.1-1c4.4-.5 8.6-1 9.2-1.1.8-.1.6 1.6-.5 5.3m-76.1 2.2c0 1.7-4.5 9.4-5.4 9.4-2.6 0-63.4 5-66.7 5.5l-3.6.5-.7-4.7c-.3-2.5-.4-4.8-.2-5 .4-.5 65.1-5.9 72.4-6.2 2.3 0 4.2.2 4.2.5m-145 16.3c1.2 2.3 1.3 5.1.2 6.8-.5.7-16.9 2.8-45.7 5.7-24.8 2.5-46 4.6-47.2 4.6-1.9 0-2.2-.4-1.7-2.9.3-1.6.1-3.8-.5-5-.9-1.6-.9-2.1.1-2.2.7 0 20.9-2 44.8-4.3 52.4-5.3 48.7-5.1 50-2.7m-96 12.7c0 2.8-1 5.4-2 5.4-.4 0-1.3-1.4-2-3-1-2.5-1-3.6-.1-5.8 1.2-2.6 1.3-2.6 2.7-.7.8 1 1.4 2.9 1.4 4.1"/><path d="M430.3 251.7c.3 1.6 1.3 6.7 2.2 11.4 1.1 5.8 2.7 10.4 5.1 14.5 1.9 3.2 4.4 8 5.6 10.6 1.2 2.7 2.6 4.8 3 4.8.4 0 .8-1.8.8-3.9 0-3-.9-5.1-3.4-8.4-5.1-6.6-6.5-9.8-8.2-18.4-1.8-9.1-3.2-13.3-4.6-13.3-.6 0-.8 1.2-.5 2.7M395.7 276.7c-1.4 1.3-.6 2.3 1.8 2.3 3 0 6 3.1 8.5 8.8 1.8 4 2.2 4.3 5.1 4 3.5-.3 5.3-2.8 2.1-2.8-2.1 0-4.3-2.2-6-6.3-1.8-4.2-9.4-8.2-11.5-6M370.6 288.9c-1.2 1.8.3 3.1 3.6 3.1 3.4 0 10.8 3.8 10.8 5.5 0 .7-1.1 1.7-2.4 2.3-3.5 1.6-6.2 6-4.8 7.4.9.9 2.3.4 5.6-1.9 7.5-5.3 12.9-5.2 18.8.4 3.3 3.2 4.9 2.3 2.6-1.5-2.2-3.6-7.4-6.2-12.6-6.2-3.6 0-4.4-.4-5.2-2.4-.5-1.3-2.3-3.4-4-4.6-3.6-2.5-11.3-3.9-12.4-2.1M488.6 300.7c-.3.3-.6 1.9-.6 3.4 0 2.3-.9 3.2-5.2 5.6-5.6 3-6.7 5.4-5.3 11 .8 3.2 2.8 2.5 3-1.1 0-1.8 1.1-3.7 3-5.3 6.7-5.5 7.5-6.5 7.5-9.8 0-3.3-1.1-5.1-2.4-3.8M426.2 305.6c-3.4 2.3-1.8 3.3 4.6 2.7 5.5-.5 6.1-.4 9 2.5 2.9 2.8 8.6 5.2 16.1 6.7 2.1.5 3.5 1.4 3.8 2.6.6 2.2 3.1 2.5 3.9.5 1-2.7-1.5-5.3-6.8-7.1-2.9-.9-8.6-3.5-12.7-5.6-8.2-4.3-14-5.1-17.9-2.3M343.5 336c-.6 1 9.6 22 10.8 22 3.3 0 1-8.5-4.5-16.9-3.3-5.1-5.3-6.7-6.3-5.1M335.2 365.2c-1.9 2.4-5 9.3-6.2 13.7l-1.2 4.5 4.1 3.7c5.8 5.4 5.4 8.4-2.7 19-3.6 4.7-4.8 8-3.8 10.6.6 1.4 1.1.8 2.6-2.4 1-2.3 3.7-6.6 5.9-9.5 2.2-3 4.7-7 5.5-8.9 1.3-3.1 1.3-3.9 0-6.4-.8-1.5-2.6-3.8-3.9-5.1-3-2.8-3.1-3.8-.6-10.6 2.9-8 3.3-9.8 2.3-9.8-.5 0-1.4.6-2 1.2M455.6 393.2c-.8 1.3-2 4.7-2.7 7.7-1.8 8.4-3.8 9.6-15 9.1-9.2-.4-23.9 4.3-23.9 7.6 0 .9.3 1.4.8 1.2 10.5-5.3 13.4-5.8 25.7-4.4 7 .8 7.1.8 10.1-2.2 3.1-3.1 5.4-8.9 5.4-13.6 0-1.5.5-3.6 1.1-4.8 1.5-2.9.3-3.4-1.5-.6"/><path d="M441.9 396c-2 1.1-8.3 2.6-14 3.5-5.6.8-11.3 2.2-12.6 3-1.2.8-4.8 5.1-7.9 9.5-3 4.4-5.9 8-6.3 8-1.6 0-7.4 5.7-6.4 6.3 1.7 1.1 8.5-4.6 14.1-11.6 2.9-3.7 6.3-7.3 7.6-8.2 1.3-.9 6.3-2.3 11.2-3.1 8.4-1.5 17-5 19.5-8.1 1.7-1.9-.8-1.6-5.2.7M504.3 402.6c-1.6 4.1 7.3 15.3 14.3 18 6.4 2.4 8.1.5 2.2-2.6-5.9-3-9.5-6.6-12.4-12.3-2.6-5.1-3.2-5.5-4.1-3.1M408.5 422.7c-1.4 2.1-2.5 4.3-2.5 5 0 2.3 1.9 1.4 3.4-1.5.8-1.6 2.2-3.4 3-4.1 1.6-1.3 1.3-3.1-.4-3.1-.5 0-2.1 1.7-3.5 3.7M326.1 426.6c-4.3 5.4-3.9 8.4 2.5 21.1l5.9 11.6v10.1c.1 8 .4 10.1 1.5 10.1 3.3 0 3.9-12.8 1-24-1.3-5-3.5-10.1-6-14-4.3-6.6-4.7-8.6-2.5-12.5 2.9-5.1 1.1-6.9-2.4-2.4M381.7 435c-5.5 4-10.2 10-9.5 12.2.2.6 1.4-.5 2.5-2.5 1.2-1.9 4.6-5.1 7.6-7 5.9-3.8 7.3-5.2 5.8-6.1-.4-.3-3.3 1.2-6.4 3.4M405.1 435.5c-2.2 2-4.3 4.6-4.7 5.8-.3 1.2-1.6 3.2-2.7 4.4-1.6 1.8-1.7 2.3-.5 2.3 1.7 0 3.7-2.2 5.8-6.4 2.4-4.7 5.5-6 15.4-6.6 12.1-.7 12.2-2.4.1-2.8l-9.4-.3-4 3.6M428.1 440c-.5 1.7-2 4.4-3.1 6-1.9 2.7-2.7 3-7.9 3-10.8 0-14.3 1.5-12.7 5.7.6 1.4.9 1.4 2.7-.5 1.7-1.9 3.1-2.2 9.8-2.2 6.2 0 8.1-.4 9.4-1.8 3.4-3.7 6.1-13.2 3.8-13.2-.5 0-1.4 1.4-2 3M498 496.3c0 .7 1.6 5.2 3.5 10 2 4.8 4.1 11.3 4.6 14.5 1.8 10.3 7.2 16.8 12.3 14.9 1.4-.6 1-1.3-2.2-4.4-2.6-2.5-4.4-5.4-5.2-8.3-3.6-13.2-5.2-18-8-22.8-2.9-5-5-6.6-5-3.9M481.3 520.5c-.4 1.1 1.2 3.5 5 7.3 3 3.1 6.7 8.1 8.1 10.9 2.5 5 4.7 6.6 6.1 4.3 1-1.5-4.2-10.3-9.7-16.5-6-6.7-8.6-8.3-9.5-6M547.5 527.1c-5.6 5.7-9.5 7.8-16.4 9-7.7 1.4-8.6 3.9-1.3 3.9 8.3 0 11.8-1.6 18.8-8.6 6-5.9 7.2-8.4 4-8.4-.6 0-3 1.8-5.1 4.1M538 548.5c-2.4 2.8.4 21.6 2.9 20 1.3-.7.6-20.8-.6-21.2-.6-.2-1.6.3-2.3 1.2M515.1 583.7c-2.5 8.2-12.8 26.3-17.8 31.5-2 2.1-7 6.1-11 9-7.3 5.3-8.7 7.3-5.6 8.5 2.7 1.1 10-3.6 17.1-11.2 5.7-5.9 8-9.6 14.1-21.8 7.5-15.1 9.8-22.7 6.8-22.7-1 0-2.2 2.2-3.6 6.7M456.5 665.9c-1.6 2.4-3.8 5.5-4.7 7-2.4 3.6-2.3 10.3.1 12.5 1.1 1 2.5 1.5 3 1.1 1.4-.8 1.4-4.2.1-5-2.2-1.4-1-7.4 2.1-10.9 2.1-2.5 2.9-4.3 2.7-6.3-.3-2.7-.3-2.7-3.3 1.6M477 684.9c0 1.8 11.8 16.7 17.2 21.8 5.3 5 10.1 7.4 11.6 5.8.4-.3-.7-1.6-2.3-2.8-5.1-3.7-14.6-13.1-16.1-15.9-3.2-6.2-10.4-12.3-10.4-8.9M537.5 714c-.7 1.2 4.2 6 6.1 6 2.2 0 1.6-3.7-.8-5.4-2.6-1.8-4.4-2-5.3-.6M657 490.2c0 .7 2.7 2.6 6.1 4.1 7.1 3.3 15.9 11.8 20.8 20 15.8 26.6 18.7 86.9 5.6 115.6-3.9 8.3-9.8 15.5-16.6 20.2-4 2.7-5.8 4.4-5.1 5.1 1.6 1.6 9.1-2.9 14.8-8.8 13.4-13.7 19.3-37.3 18.1-72.4-.8-24.7-3.8-40-10.7-54.8-6.2-13.1-14.6-22.4-25.2-27.8-5.2-2.7-7.8-3-7.8-1.2M406.4 515.9c-4.1 2.5-4.7 3.5-5.5 10.1-.6 4.4-1.4 6.1-4 8.3-2.3 2.2-2.8 3.2-2 4 .9.9 1.8.8 3.9-.3 2.5-1.5 3.2-2.8 6.3-13 1.2-4 1.9-4.7 5.7-6 2.8-1 4.2-2 4.2-3.2 0-2.4-4.5-2.4-8.6.1M406.6 547.4c-2.1 4.5-2 8 .4 14.4 2.7 7.1 4.1 9.2 6.2 9.2 2.6 0 2.2-2.6-1.3-10-3-6.4-3.2-8.3-1.3-14.8 1-3.6-2.1-2.7-4 1.2M427.7 563.1c-8.4 8.9-14.5 22-19.5 42.4-4.4 17.4-5.4 25.6-3.5 26.2.7.3 1.4-1.1 1.8-3.4 2.1-13.4 3.1-17.8 5.7-25.8 4.2-12.5 11.1-25.6 18.5-34.8 3.5-4.3 6.3-8.4 6.3-9.2 0-3.1-3.7-1.3-9.3 4.6M387 689.2c0 5-2.3 10.3-7.4 17.3-3.6 5-4.5 7.5-2.6 7.5s6-5.3 8.9-11.4c5.4-11.4 6.3-17.6 2.6-17.6-1.1 0-1.5 1.1-1.5 4.2M391 716.9c0 1.9 8.4 27 10.7 31.8 1.8 3.9 3 5.3 4.5 5.3 2.4 0 2.3-.5-2-10.5-1.7-3.9-4-10.2-5.2-14.1-2.3-7.6-5.3-13.4-7-13.4-.5 0-1 .4-1 .9M430.5 761c-2.2 1.1-5.4 2.9-7.2 4.1-1.7 1.1-6.5 2.6-10.5 3.2-5.8 1-7.4 1.6-7.6 3.1-.4 1.8.1 1.9 5.8 1.3 9.1-1 13.4-2.6 17.5-6.4 2.6-2.5 4.4-3.4 6.3-3.2 3.7.4 5.7-.8 4.1-2.7-1.6-1.9-3.6-1.7-8.4.6M431 770.8c0 2.4 2.8 6.2 4.6 6.2 1.9 0 1.8-4.4-.2-6.4-2.1-2.1-4.4-2-4.4.2M145 537.4c0 .8 2.4 2.5 5.3 3.9 16.8 7.7 28.1 25.4 33.6 52.4 4.7 22.7 4.5 56.6-.3 75.6-4.3 16.8-13.1 30.5-23 35.8-4.3 2.2-5.4 3.7-4 5.2 1 1 8.3-3.2 13-7.5 9.1-8.4 15.5-21.6 19.1-39.4 2.5-12.7 2.5-48.4 0-63.9-2.3-14-7.6-30-12.9-38.9-5.2-8.8-14.2-17.7-22-21.5-6.8-3.4-8.8-3.8-8.8-1.7"/></svg>